<?xml version="1.0" encoding="utf-8"?>
<!-- Generator: Adobe Illustrator 19.2.1, SVG Export Plug-In . SVG Version: 6.00 Build 0)  -->
<svg version="1.1" id="Layer_1" xmlns="http://www.w3.org/2000/svg" xmlns:xlink="http://www.w3.org/1999/xlink" x="0px" y="0px"
	 viewBox="0 0 500 500" style="enable-background:new 0 0 500 500;" xml:space="preserve">
<style type="text/css">
	.st0{opacity:0.42;fill:url(#SVGID_1_);}
	.st1{opacity:0.43;fill:#CFE5ED;}
	.st2{fill:#18181D;}
	.st3{fill:#1F394C;}
	.st4{fill:#6ABBE9;}
	.st5{opacity:0.25;fill:#35658D;}
	.st6{fill:#8AD1F4;}
	.st7{fill:#F1BF75;}
	.st8{fill:#AAC6CE;}
	.st9{fill:#CFE5ED;}
	.st10{fill:#EA9249;}
	.st11{fill:#0F2A3F;}
	.st12{fill:#35658D;}
	.st13{fill:#6EB7E5;}
	.st14{opacity:0.26;fill:#0F2A3F;}
	.st15{opacity:0.42;fill:#35658D;}
</style>
<g>
	<linearGradient id="SVGID_1_" gradientUnits="userSpaceOnUse" x1="248.85" y1="438.2184" x2="248.85" y2="-1.3293">
		<stop  offset="0" style="stop-color:#FFFFFF"/>
		<stop  offset="0.1358" style="stop-color:#F5F9FD"/>
		<stop  offset="0.3292" style="stop-color:#E1EDF9"/>
		<stop  offset="0.5573" style="stop-color:#C2DCF3"/>
		<stop  offset="0.8097" style="stop-color:#96C7EB"/>
		<stop  offset="1" style="stop-color:#6EB7E5"/>
	</linearGradient>
	<path class="st0" d="M125.9,468.5h245.8c54.8-37.8,90.6-100.1,90.6-170.6c0-115.2-95.6-225.2-213.5-225.2
		c-117.9,0-213.5,110-213.5,225.2C35.3,368.5,71.1,430.8,125.9,468.5z"/>
	<path class="st1" d="M368.7,483.3c0.6-15.9-65.9-43.7-148.4-62.1c-82.5-18.4-149.9-20.4-150.4-4.6c-0.6,15.9,65.8,43.7,148.4,62.1
		C300.8,497.1,368.1,499.2,368.7,483.3z"/>
	<g>
		<g>
			<g>
				<path class="st2" d="M293.2,306.6c-14.2-5.2-25.7-20.8-25.7-34.9l0-239.1c0-14.1,11.5-21.4,25.7-16.2L397,54.2
					c14.2,5.2,25.7,20.8,25.7,34.9l0,239.1c0,14.1-11.5,21.4-25.7,16.2L293.2,306.6z"/>
				<path class="st3" d="M294.8,314.5c-14.9-5.4-27.1-21.9-27.1-36.8l0-252.1c0-14.9,12.1-22.5,27.1-17.1l109.5,39.9
					c14.9,5.4,27.1,21.9,27.1,36.8l0,252.1c0,14.9-12.1,22.5-27.1,17.1L294.8,314.5z"/>
				<path class="st4" d="M293.2,296.9c-8.8-3.2-15.9-12.9-15.9-21.7l0-239.1c0-8.7,7.1-13.2,15.9-10L397,63.9
					c8.8,3.2,15.9,12.9,15.9,21.7l0,239.1c0,8.7-7.1,13.2-15.9,10L293.2,296.9z"/>
				<path class="st5" d="M397,63.9L293.2,26c-6.2-2.3-11.6-0.7-14.2,3.6c2.8-1.4,6.4-1.6,10.4-0.1l103.9,37.9
					c8.8,3.2,15.9,12.9,15.9,21.7l0,239.1c0,2.6-0.6,4.7-1.7,6.5c3.4-1.7,5.5-5.2,5.5-9.9l0-239.1C413,76.8,405.8,67.1,397,63.9z"/>
				<path class="st3" d="M383.7,57.1l-77.3-28.2l3.4,9.2c1.6,4.2,5.1,7.8,9.1,9.3l52.2,19c4,1.4,7.5,0.4,9.1-2.7L383.7,57.1z"/>
			</g>
			<path class="st6" d="M392.8,96.7L297.4,62c-5.1-1.9-9.3,0.8-9.3,5.9v43c0,5.1,4.2,10.7,9.3,12.6l95.4,34.8
				c5.1,1.9,9.3-0.8,9.3-5.9l0-43C402.1,104.3,397.9,98.6,392.8,96.7z"/>
			<path class="st6" d="M392.8,172.4l-95.4-34.8c-5.1-1.9-9.3,0.8-9.3,5.9v43c0,5.1,4.2,10.7,9.3,12.6l95.4,34.8
				c5.1,1.9,9.3-0.8,9.3-5.9v-43C402.1,179.9,397.9,174.3,392.8,172.4z"/>
			<path class="st6" d="M392.8,248.9l-95.4-34.8c-5.1-1.9-9.3,0.8-9.3,5.9v43c0,5.1,4.2,10.7,9.3,12.6l95.4,34.8
				c5.1,1.9,9.3-0.8,9.3-5.9v-43C402.1,256.4,397.9,250.7,392.8,248.9z"/>
			<g>
				<path class="st3" d="M362.2,103.9l-33-12c-1.1-0.4-2,0.2-2,1.3l0,0c0,1.1,0.9,2.3,2,2.8l33,12c1.1,0.4,2-0.2,2-1.3l0,0
					C364.3,105.6,363.3,104.3,362.2,103.9z"/>
				<path class="st3" d="M362.2,126.6l-33-12c-1.1-0.4-2,0.2-2,1.3l0,0c0,1.1,0.9,2.3,2,2.8l33,12c1.1,0.4,2-0.2,2-1.3l0,0
					C364.3,128.2,363.3,127,362.2,126.6z"/>
				<path class="st3" d="M372.4,119.1l-54.6-19.9c-1.1-0.4-2,0.2-2,1.3l0,0c0,1.1,0.9,2.3,2,2.8l54.6,19.9c1.1,0.4,2-0.2,2-1.3l0,0
					C374.4,120.7,373.5,119.5,372.4,119.1z"/>
			</g>
			<g>
				<path class="st3" d="M362.2,185.1l-33-12c-1.1-0.4-2,0.2-2,1.3l0,0c0,1.1,0.9,2.3,2,2.8l33,12c1.1,0.4,2-0.2,2-1.3l0,0
					C364.3,186.7,363.3,185.5,362.2,185.1z"/>
				<path class="st3" d="M372.4,200.2l-54.6-19.9c-1.1-0.4-2,0.2-2,1.3l0,0c0,1.1,0.9,2.3,2,2.8l54.6,19.9c1.1,0.4,2-0.2,2-1.3l0,0
					C374.4,201.9,373.5,200.6,372.4,200.2z"/>
			</g>
			<g>
				<path class="st3" d="M362.2,256l-33-12c-1.1-0.4-2,0.2-2,1.3l0,0c0,1.1,0.9,2.3,2,2.8l33,12c1.1,0.4,2-0.2,2-1.3l0,0
					C364.3,257.6,363.3,256.4,362.2,256z"/>
				<path class="st3" d="M362.2,278.4l-33-12c-1.1-0.4-2,0.2-2,1.3l0,0c0,1.1,0.9,2.3,2,2.8l33,12c1.1,0.4,2-0.2,2-1.3l0,0
					C364.3,280.1,363.3,278.8,362.2,278.4z"/>
				<path class="st3" d="M372.4,271.2l-54.6-19.9c-1.1-0.4-2,0.2-2,1.3l0,0c0,1.1,0.9,2.3,2,2.8l54.6,19.9c1.1,0.4,2-0.2,2-1.3l0,0
					C374.4,272.8,373.5,271.6,372.4,271.2z"/>
			</g>
		</g>
		<g>
			<path class="st7" d="M268.2,443.3c0,0-5-1.8-5.6-12.7h-14.5l-1.4,15l10.8,9.1l9.4-4.7L268.2,443.3z"/>
			<path class="st3" d="M246.7,445.6c0,0,17,5.6,21.5-2.3c0,0,31.3,11.7,31.1,15.2c-0.4,5.5-26.3,6.6-32,5.2l-5-5l-2.2,5.7h-14.3
				C245.9,464.4,246,446.5,246.7,445.6z"/>
			<path class="st7" d="M214,443.4c0,0-4.9-2-5-13l-14.5-0.7l-2.1,15l10.4,9.5l9.6-4.3L214,443.4z"/>
			<path class="st3" d="M192.4,444.7c0,0,16.7,6.4,21.6-1.3c0,0,27.4,9.9,29,14.4c1.6,4.5-25.2,7.6-30.8,5.9l-4.7-5.2l-2.4,5.6
				l-14.3-0.7C190.7,463.5,191.7,445.6,192.4,444.7z"/>
			<path class="st3" d="M182.6,271.2c0,0,9.4,38.2,11.7,44.6c2.3,6.4,7.1,37.5,7.4,38.5S191,435.4,191,435.4s14.8,3.3,20.7-0.5
				l16.1-80.8l-6.9-79.5L182.6,271.2z"/>
			<path class="st3" d="M184.6,269.1c0,0,14.5,24.9,27.5,35.9c13,11.1,29.1,40.9,29.1,40.9l1.9,88.7l0,0c6.2,3.8,14,4,20.4,0.5
				l1-0.5c0,0,2.3-92.2,1.9-98.3c-0.4-6.1-32.9-76.5-32.9-76.5L184.6,269.1z"/>
			<path class="st3" d="M240.8,106.2c0,0-11.4,40.2-29.6,39c-16-1-19-17.6-15.1-38.1c4-21.2,21.5-18.4,31.7-18.5
				c0,0,12.6,0,14.7-9.8C242.5,78.9,257.3,98.9,240.8,106.2"/>
			<path class="st8" d="M211.8,155.2c0,0-22.3-3.9-32.6,43.6c-4.3,19.9,18.4,51.2,18.4,51.2l23.7-45.6L211.8,155.2z"/>
			<path class="st7" d="M305.3,128.2c0,0,8.4-23.1,8.4-29.4s4.8-0.8,4.6,4c-0.2,4.8-1.3,10.1-1.3,10.1s6.5,0.6,6.5,3.6
				c0,3.1-2.1,13.8-5.2,15.5L305.3,128.2z"/>
			<path class="st9" d="M224.2,158.4c14.8,7.6,46.5,27.5,53.7,21c7.3-6.5,27.3-51.2,27.3-51.2l13,3.8c0,0-27.8,74.6-36,74.4
				c-8.2-0.2-36.2-5.6-36.2-5.6s-2.5,52.6-10.2,67.2c0,0-37.7,13.6-57.2,2.5c0,0,16.1-20.6,11.9-51.1
				C186.1,187.6,194.6,143.2,224.2,158.4z"/>
			<g>
				<path class="st10" d="M240.8,106.2c0,0,1.3,7.1,3.4,10.3c2.1,3.3,6.7,6.5,6.7,6.5l-3.6,4.6c0,0,2.7,16.1-14.3,19.1l-1.7,15.9
					l-19.3-6.5l-0.8-10.9c0,0,3.2-3.3,3.3-6.9c0,0-3.8-3.7-2.6-8.1c1.2-4.4,5.2-7.7,7-6.1c1.8,1.6,2,4.9,2,4.9h2.5
					c0,0-0.4-7.3,1.1-10.3C226.5,114.5,231.6,108.3,240.8,106.2z"/>
				<path class="st7" d="M231.2,162.6l1.7-15.9c17-3.1,14.3-19.1,14.3-19.1l3.6-4.6c0,0-4.6-3.3-6.7-6.5c-2.1-3.3-3.4-10.3-3.4-10.3
					c-0.8,0.2-1.5,0.4-2.2,0.7c1.2,3.3,2.9,8.9,3.3,14.1c0.6,8.2-0.7,17.5-12.2,24.5c-3.9,2.4-5.3,8.8-5.7,14.8L231.2,162.6z"/>
			</g>
		</g>
		<path class="st11" d="M224.9,321.8c-12.7-2.9-24.7-10.5-34-17.9c-3-11.4-6.9-27.1-8-31.5c1.5,0.5,3,1,4.5,1.3
			c4.8,7.7,15.2,23.3,24.7,31.4c4.1,3.5,8.5,8.8,12.6,14.5L224.9,321.8z"/>
	</g>
	<path class="st1" d="M404.7,407.9c-0.2-6-29.9-16.4-66.3-23.2c-36.5-6.8-65.9-7.4-65.7-1.4c0.2,6,29.9,16.4,66.3,23.2
		C375.4,413.4,404.8,414,404.7,407.9z"/>
	<g>
		<path class="st12" d="M120.4,309c0,0,8.9-77.9-23.3-65.8C63.8,255.8,105.5,307.3,120.4,309z"/>
		<path class="st13" d="M111.6,356.1c0,0-9.8-78-38.2-56.4C47.7,319.2,92.6,350.3,111.6,356.1z"/>
		<path class="st3" d="M90.6,326.8c13,18,25.6,36.3,29.6,58.6c0.2,1.2,2,0.7,1.8-0.5c-4.1-22.4-16.7-40.9-29.8-59
			C91.5,324.9,89.9,325.8,90.6,326.8L90.6,326.8z"/>
		<path class="st13" d="M136.3,292.4c0,0-11.7-57.3,17.9-52.1C183.7,245.5,143.8,289.7,136.3,292.4z"/>
		<path class="st12" d="M139,347.8c-1.5,1-3-48.4,17.9-46.7S168.1,328.4,139,347.8z"/>
		<path class="st3" d="M129.9,343.8c-2.3-29.1,9.8-61.8,21.1-88.3c0.5-1.1-1.1-2-1.6-0.9c-11.4,26.9-23.6,59.6-21.3,89.2
			C128.1,345,130,345,129.9,343.8L129.9,343.8z"/>
		<path class="st3" d="M132.6,380.7c-1.5-34.1-4.5-68.7-23.6-98c-0.7-1-2.3-0.1-1.6,0.9c18.9,29.1,21.9,63.3,23.3,97.1
			C130.8,381.9,132.6,381.9,132.6,380.7L132.6,380.7z"/>
		<path class="st3" d="M137,379.2c0.8-17.9,2-35.8,11.8-51.4c0.6-1-1-2-1.6-0.9c-10,15.8-11.3,34.1-12.1,52.3
			C135,380.4,136.9,380.4,137,379.2L137,379.2z"/>
		<g>
			<path class="st9" d="M104.1,375.5l4.9,43.9c0.6,5.5,5.2,9.7,10.8,9.7h28c5.5,0,10.2-4.2,10.8-9.7l4.9-43.9c0.3-2.4-1.6-4.5-4-4.5
				h-51.2C105.7,371,103.8,373.1,104.1,375.5z"/>
			<path class="st8" d="M159.3,371h-17.8c2.4,0,4.3,2.1,4,4.5l-4.9,43.9c-0.6,5.5-5.2,9.7-10.8,9.7h17.8c5.5,0,10.2-4.2,10.8-9.7
				l4.9-43.9C163.6,373.1,161.7,371,159.3,371z"/>
		</g>
		<path class="st14" d="M109.4,303c4.2,3.4,8.1,5.7,11,6c0,0,8.9-77.4-23-65.9C105.9,253.8,124.1,281,109.4,303z"/>
		<path class="st14" d="M158.7,301.3c0.7,9.8,0.6,35.8-20.3,34.2c-0.3,7.2,0.1,12.6,0.7,12.2C167.2,329,177.2,304.4,158.7,301.3z"/>
		<path class="st15" d="M155.6,240.6c0.6,10.2,0.5,38.4-21.2,37.2c0.6,8.2,1.9,14.6,1.9,14.6C143.6,289.7,182.3,247,155.6,240.6z"/>
		<path class="st15" d="M111.6,356.1c0,0-9.8-78-38.2-56.4c-0.9,0.7-1.7,1.4-2.4,2.1c8.9,3.1,38.1,15.9,28.6,49
			C104,353.2,108.2,355.1,111.6,356.1z"/>
	</g>
</g>
</svg>
