<?xml version="1.0" encoding="utf-8"?>
<!-- Generator: Adobe Illustrator 19.2.1, SVG Export Plug-In . SVG Version: 6.00 Build 0)  -->
<svg version="1.1" id="Layer_1" xmlns="http://www.w3.org/2000/svg" xmlns:xlink="http://www.w3.org/1999/xlink" x="0px" y="0px"
	 viewBox="0 0 500 500" style="enable-background:new 0 0 500 500;" xml:space="preserve">
<style type="text/css">
	.st0{opacity:0.42;fill:url(#SVGID_1_);}
	.st1{opacity:0.43;fill:#CFE5ED;}
	.st2{fill:#AAC6CE;}
	.st3{fill:#86B1BB;}
	.st4{fill:#3F8CCB;}
	.st5{fill:#CFE5ED;}
	.st6{fill:none;stroke:#3F8CCB;stroke-miterlimit:10;}
	.st7{fill:#1F394C;}
	.st8{fill:#6ABBE9;}
	.st9{fill:#35658D;}
	.st10{fill:#6EB7E5;}
	.st11{opacity:0.25;fill:#35658D;}
	.st12{fill:#F1BF75;}
	.st13{fill:#0F2A3F;}
	.st14{fill:#EA9249;}
	.st15{fill:#80A9B2;}
	.st16{opacity:0.67;fill:#EA9249;}
	.st17{opacity:0.29;fill:#35658D;}
	.st18{opacity:0.48;fill:#1F394C;}
	.st19{fill:#2474AB;}
	.st20{fill:#1B3651;}
</style>
<g>
	<linearGradient id="SVGID_1_" gradientUnits="userSpaceOnUse" x1="249.7668" y1="428.3739" x2="249.7668" y2="-45.5221">
		<stop  offset="0" style="stop-color:#FFFFFF"/>
		<stop  offset="0.1358" style="stop-color:#F5F9FD"/>
		<stop  offset="0.3292" style="stop-color:#E1EDF9"/>
		<stop  offset="0.5573" style="stop-color:#C2DCF3"/>
		<stop  offset="0.8097" style="stop-color:#96C7EB"/>
		<stop  offset="1" style="stop-color:#6EB7E5"/>
	</linearGradient>
	<path class="st0" d="M117.2,461.1h265c59.1-40.7,97.7-107.9,97.7-183.9c0-124.2-103.1-242.8-230.2-242.8
		c-127.1,0-230.2,118.6-230.2,242.8C19.6,353.2,58.2,420.3,117.2,461.1z"/>
	<ellipse class="st1" cx="249.8" cy="461.7" rx="242.6" ry="9.6"/>
	<g>
		<rect x="159.6" y="346.7" class="st2" width="11" height="105.6"/>
		<rect x="159.6" y="346.7" class="st3" width="11" height="14.8"/>
		<path class="st2" d="M217.1,452.3H116.5c-1.3,0-2.3,1.1-2.3,2.3v7.3h105.3v-7.3C219.5,453.3,218.4,452.3,217.1,452.3z"/>
		<path class="st2" d="M138.9,346.8h76.5c-27.8-10-17.1-104.2-11.9-139.8c1-7.2-4.6-13.6-11.8-13.6l-50.9,0
			c-10.4,0-19.3,7.7-20.7,18c-4.5,32.4-11.5,99.7,2.4,125.7C125.7,343.1,132.1,346.8,138.9,346.8z"/>
	</g>
	<g>
		<circle class="st4" cx="96.6" cy="84.6" r="53.6"/>
		<circle class="st5" cx="96.6" cy="84.6" r="43.8"/>
		<path class="st6" d="M96.6,52.9"/>
		<g>
			<g>
				<path class="st4" d="M84.1,99.5c-0.7,0-1.4-0.3-1.9-0.8c-1.1-1.1-1.1-2.8,0-3.9l11.4-11.4v-30c0-1.5,1.2-2.7,2.7-2.7
					c1.5,0,2.7,1.2,2.7,2.7v31.1c0,0.7-0.3,1.4-0.8,1.9L86.1,98.7C85.5,99.2,84.8,99.5,84.1,99.5z"/>
			</g>
			<circle class="st7" cx="96" cy="83.8" r="6.3"/>
		</g>
	</g>
	<g>
		<path class="st8" d="M401.8,134.5h-91.5c-4.7,0-8.5,3.8-8.5,8.5v41.2c0,4.7,3.8,8.5,8.5,8.5h6.4v10c0,1.4,1.6,2.1,2.7,1.2
			l12.4-11.2h70.1c4.7,0,8.5-3.8,8.5-8.5V143C410.3,138.3,406.5,134.5,401.8,134.5z"/>
		<g>
			<circle class="st9" cx="333.9" cy="164.2" r="3.7"/>
			<circle class="st9" cx="356.9" cy="164.2" r="3.7"/>
			<circle class="st9" cx="378.3" cy="164.2" r="3.7"/>
		</g>
	</g>
	<g>
		<g>
			<path class="st10" d="M102.2,245.2c0-10.1-7.1-20.2-15.9-20.2c-8.8,0-15.9,10.1-15.9,20.2c0,10.1,7.1,18.3,15.9,18.3
				C95.1,263.5,102.2,255.3,102.2,245.2z"/>
			<path class="st11" d="M86.3,225c-1.4,0-2.8,0.3-4.1,0.8c6.8,2.5,11.8,11,11.8,19.4c0,8.5-5,15.6-11.8,17.6
				c1.3,0.4,2.7,0.6,4.1,0.6c8.8,0,15.9-8.2,15.9-18.3C102.2,235.1,95.1,225,86.3,225z"/>
		</g>
		<g>
			<path class="st5" d="M68.2,257.2L71,283c0.4,3.2,3.1,5.7,6.3,5.7h16.5c3.2,0,6-2.4,6.3-5.7l2.9-25.8c0.2-1.4-0.9-2.6-2.4-2.6
				H70.5C69.1,254.5,68,255.7,68.2,257.2z"/>
			<path class="st2" d="M70.5,258.4h30.1c0.9,0,1.7,0.6,2.1,1.3l0.3-2.5c0.2-1.4-0.9-2.6-2.4-2.6H70.5c-1.4,0-2.5,1.2-2.4,2.6
				l0.3,2.5C68.9,258.9,69.6,258.4,70.5,258.4z"/>
			<path class="st2" d="M100.7,254.5H90.2c1.4,0,2.5,1.2,2.4,2.6L89.7,283c-0.4,3.2-3.1,5.7-6.3,5.7h10.4c3.2,0,6-2.4,6.3-5.7
				l2.9-25.8C103.2,255.7,102.1,254.5,100.7,254.5z"/>
		</g>
	</g>
	<g>
		<g>
			<g>
				<polygon class="st12" points="232.5,436.6 231.5,444.1 237.1,451.4 251.5,444.3 253.1,437.5 235.2,434.8 				"/>
				<path class="st7" d="M244.2,460.7l1.5-1.8c0.3-0.3,0.8-0.3,1.1,0l1.5,1.8c0.6,0.7,1.5,1.1,2.4,1.1l33.5-0.6
					c0.6-0.7,0.8-1.8,0.1-2.5c-4.9-4.9-31.3-13.5-32.6-14.2c-1.3-0.7-9.4,5.6-20.1-0.2c0,0-1.7,8.4-2,13.8c-0.1,2.2,1.6,4.1,3.9,4
					l8.5-0.1C242.7,461.8,243.6,461.4,244.2,460.7z"/>
				<path class="st7" d="M171.1,310.5c0,0-13.9,15.4,11.5,32.1c17.9,11.7,31.9,8.1,43.1,15.2c2.6,1.7,4.6,4.1,4.8,7.2l0.6,71.8
					l1.4,0.7c6.7,3.3,14.6,3.4,21.5,0.2l0,0l10.1-81.9c0.4-5.6-2.7-10.4-6.2-14.9c-19.5-24.7-53.9-33.1-62.6-34.6
					C184,304.6,171.1,310.5,171.1,310.5z"/>
			</g>
			<g>
				<polygon class="st12" points="177.2,436.6 176,444.1 181.6,451.4 196.1,444.6 197.8,437.8 179.9,434.8 				"/>
				<path class="st7" d="M188.5,460.8l1.5-1.8c0.3-0.3,0.8-0.3,1.1,0l1.5,1.8c0.6,0.7,1.5,1.1,2.4,1.1l33.5-0.1
					c0.6-0.6,0.8-1.8,0.1-2.5c-4.8-5-31.1-13.9-32.4-14.7c-1.3-0.7-9.5,5.4-20.1-0.5c0,0-1.8,8.4-2.2,13.8c-0.1,2.2,1.6,4.1,3.8,4.1
					l8.5,0C187.1,461.9,187.9,461.5,188.5,460.8z"/>
				<path class="st7" d="M128.9,297.1c0,0-16.8,18.8,7.5,40c17.1,14.9,32.4,8.5,43.2,17.6c2.5,2.1,4.3,5,4,8.3l-7.7,73l0.6,0.4
					c6.7,4.4,15.2,4.9,22.4,1.5l0,0l19-77c1.2-5.9-1.3-11.3-4.4-16.5c-16.9-28.8-43.4-46-52.4-48.7
					C149.6,292.1,128.9,297.1,128.9,297.1z"/>
			</g>
			<path class="st13" d="M221.8,355.7c-1.3-0.5-2.6-1-3.9-1.4c-0.7-3.4-2.4-6.8-4.3-9.9c-8.4-14.3-19.1-25.7-28.9-33.9
				c6.1-1,9.2-2.3,10.9-4.1c3.3,0.5,10.1,2.1,18.3,5C222.1,325.3,222.1,347.7,221.8,355.7z"/>
		</g>
		<path class="st5" d="M174.2,197.8c0,0-24.3-3.2-34.4,15.7c-10.1,18.9-25.2,93.1-12,95.3c5.8,1,21.4,4.9,38.6,3.7
			c23.7-1.7,28.9-3.9,30.6-8.4l15.1-69.1c0.4-9.5-3.9-18.7-11.5-24.4C188.6,201.4,174.2,197.8,174.2,197.8z"/>
		<path class="st2" d="M212.1,228.9c0,0,0.3,41.6,13.4,44.1c13.1,2.5,47.9,1.7,47.9,1.7V288h-74.7L212.1,228.9z"/>
		<path class="st14" d="M194,210l2.9-14.7l-19.1-14.5l-3.7,17.4C174.2,198.1,180.2,224.6,194,210z"/>
		<path class="st7" d="M218.3,167.2c0,0-10,4.9-24.6-4.1c0,0-3.4,6.1-13.2,11.6c0,0-5.1-8.5-8-2.1c-0.9,1.9-1.3,3.7-1.3,5.2
			c-9.2-11.9-2.7-27.5,5.9-35.9c8.1-8,25.7-4.8,36.7-0.4c11.6,4.7,13.8-3.5,13.8-3.5C242.2,158.7,218.3,167.2,218.3,167.2z"/>
		<path class="st12" d="M180.5,174.7c0,0-5.1-8.5-8-2.1c-3.6,7.8,0.5,12.6,5.3,12.6c0,0,3.8,20.2,22.4,18.8
			c18.6-1.4,21.2-31.2,18.2-36.8c0,0-10,4.9-24.6-4.1C193.7,163.2,190.3,169.3,180.5,174.7z"/>
		<g>
			<path class="st5" d="M341.4,222h-77.5c-3.8,0-7.1,2.7-7.9,6.4l-10.3,50.6h93.9l9.7-47.3C350.3,226.6,346.4,222,341.4,222z"/>
			<path class="st15" d="M341.7,278.9H208.8c-0.8,0-1.4,0.6-1.4,1.4v6.1c0,0.8,0.6,1.4,1.4,1.4h132.9c0.8,0,1.4-0.6,1.4-1.4v-6.1
				C343.1,279.6,342.5,278.9,341.7,278.9z"/>
			<path class="st2" d="M339.3,278.9h-94.6c2.1,0,3.8,1.7,3.8,3.8v1.2c0,2.1-1.7,3.8-3.8,3.8h94.6c2.1,0,3.8-1.7,3.8-3.8v-1.2
				C343.1,280.7,341.4,278.9,339.3,278.9z"/>
		</g>
		<path class="st5" d="M215.4,276.2c-15.1-1.8-57.4-6.1-64.6-6.8c-9.1-0.9,10.7-37.8,12.9-50.5c2.2-12.6-7.4-13.1-7.4-13.1
			c-5.4-0.7-11.4,0-16.4,7.6c-10.3,15.6-21.8,61.4-15.8,72.6c0.7,1.3,2.1,2.1,3.6,2.1h87.7V276.2z"/>
		<path class="st2" d="M215.4,276.2c0,0-54.5-3.7-66.2-5.3c-9.1-1.2,9.9-39,12.1-51.6s-7.6-12.1-7.6-12.1c-2.4-0.3-6,0-8.5,0.8
			c3.6-2.4,7.5-2.6,11.1-2.1c0,0,9.6,0.5,7.4,13.1c-2.2,12.6-19.2,48.7-13.5,50.1C157.3,270.8,200.3,274.5,215.4,276.2z"/>
		<path class="st12" d="M215.4,288.5h20.3c1.5,0,2.4-1.7,1.6-3c-1.9-2.9-4.9-7.1-7.1-7.8c-1.3-0.4-11.2,0-14.8,0.3V288.5z"/>
		<path class="st16" d="M218.3,167.2c0,0-1.7,0.8-4.6,1.1c-0.2,1.4-0.7,4-0.9,6.5c-0.3,3.6,1.4,14.6,0.3,14.7
			c-1.1,0.1-3.4-0.1-3.4-0.1s-1.7,16-17.7,13.4c-0.2,0-0.3,0-0.4-0.1c2.4,0.9,5.2,1.3,8.5,1.1C218.7,202.5,221.4,172.7,218.3,167.2z
			"/>
	</g>
	<g>
		<g>
			<path class="st10" d="M451.3,399.7c0,0,25.5-12.7,18.6-31.9c-6.9-19.2-11.2-20,2-30.8c13.3-10.8,32.5-38,8.2-40
				c-24.3-2-23.1,30.2-43.3,34.7C416.6,336.2,405.5,420.7,451.3,399.7z"/>
			<path class="st11" d="M431.2,401.6c4.9,2.3,11.5,2.1,20.1-1.9c0,0,25.5-12.7,18.6-31.9c-6.9-19.2-11.2-20,2-30.8
				c13.3-10.8,32.5-38,8.2-40c-2.4-0.2-4.5-0.1-6.5,0.3c6.8,2.8,13.6,8.5,4.8,18.9c-14.6,17.4-22.5,23.5-20.8,34.7
				C459.3,361.9,458.4,386.8,431.2,401.6z"/>
		</g>
		<g>
			<path class="st10" d="M408,399.1c0,0-22.5-0.8-21.2-16.9c1.2-16.1,1.8-16.8-12.3-21.8c-24.9-9-5.2-56.8,15.1-26.7
				c14.1,20.9,20.2,16.2,29.4,17.8C428.2,353,448.2,406.2,408,399.1z"/>
			<path class="st17" d="M419,351.4c-9.2-1.6-15.3,3.1-29.4-17.8c-10.6-15.7-21.1-10.1-25.1,0.1c6-1.8,15.1-2.9,16.2,6.8
				c1.5,12.6,31,33.3,30.4,59.1c0.4,0,0.8,0.1,1.2,0.1c4.3-11.3,10-26,14.8-38.5C424.5,355.7,421.4,351.8,419,351.4z"/>
		</g>
		<g>
			<path class="st9" d="M413.2,398.4c0,0-27.9-27.3-18.4-31.9c9.5-4.6,28.2,10.4,17.8-5.8c-10.4-16.2-22.5-41.5-8.1-37.5
				c14.4,4,15.4,8.4,13.7-10.5c-2.3-24.5,11.3-37.1,24.2-29.1c12.9,8-11,61.9-2.1,56c8.9-5.8,16.2-10.7,18.1-3.7
				c1.8,7-25.4,34.7-15.3,30c12.6-5.8,14.4,4.6,10.4,11C449.3,383.4,432.8,421.7,413.2,398.4z"/>
			<path class="st18" d="M453.3,376.9c4-6.4,2.1-16.8-10.4-11c-10.1,4.7,17.2-23,15.3-30c-1.8-7-9.2-2.1-18.1,3.7
				c-8.9,5.8,15-48.1,2.1-56c-6-3.7-12.1-2.9-16.7,1.4c6.7,1.6,12,7,8.3,21.4c-7.8,30.6-12.6,56.2,1.7,48.7
				c13.5-7.1-15.6,25.5-15.9,48.9C436.3,413.5,449.8,382.7,453.3,376.9z"/>
		</g>
		<g>
			<path class="st5" d="M393.9,401.6l5.4,48.8c0.7,6.1,5.8,10.7,12,10.7h31.1c6.1,0,11.3-4.6,12-10.7l5.4-48.8c0.3-2.7-1.8-5-4.5-5
				h-56.9C395.7,396.6,393.6,398.9,393.9,401.6z"/>
			<path class="st2" d="M455.3,396.6h-19.7c2.7,0,4.8,2.3,4.5,5l-5.4,48.8c-0.7,6.1-5.8,10.7-12,10.7h19.7c6.1,0,11.3-4.6,12-10.7
				l5.4-48.8C460.1,398.9,458,396.6,455.3,396.6z"/>
		</g>
	</g>
	<g>
		<g>
			<path class="st4" d="M399.1,288.3H56.7c-1.4,0-2.5,1.1-2.5,2.5v10.8c0,1.4,1.1,2.5,2.5,2.5h342.4c1.4,0,2.5-1.1,2.5-2.5v-10.8
				C401.5,289.4,400.4,288.3,399.1,288.3z"/>
			<path class="st19" d="M394.8,288.3H61c-3.7,0-6.8,3-6.8,6.8v2.2c0,0.7,0.1,1.4,0.4,2.1c0.9-2.7,3.4-4.7,6.4-4.7h333.8
				c3,0,5.6,2,6.4,4.7c0.2-0.7,0.4-1.3,0.4-2.1v-2.2C401.5,291.4,398.5,288.3,394.8,288.3z"/>
		</g>
		<g>
			<g>
				<g>
					<polygon class="st9" points="166.5,461.4 155.3,461.4 77.7,304.2 88.8,304.2 					"/>
				</g>
			</g>
			<g>
				<g>
					<polygon class="st9" points="43.6,461.4 54.8,461.4 132.4,304.2 121.2,304.2 					"/>
				</g>
			</g>
			<g>
				<g>
					<polygon class="st9" points="406.8,461.4 395.6,461.4 318,304.2 329.1,304.2 					"/>
				</g>
			</g>
			<g>
				<g>
					<polygon class="st9" points="283.9,461.4 295.1,461.4 372.7,304.2 361.5,304.2 					"/>
				</g>
			</g>
			<g>
				<g>
					<polygon class="st20" points="91.9,310.4 88.8,304.2 77.7,304.2 80.8,310.4 					"/>
				</g>
			</g>
			<g>
				<g>
					<polygon class="st20" points="129.3,310.4 132.4,304.2 121.2,304.2 118.2,310.4 					"/>
				</g>
			</g>
			<g>
				<g>
					<polygon class="st20" points="332.2,310.4 329.1,304.2 318,304.2 321.1,310.4 					"/>
				</g>
			</g>
			<g>
				<g>
					<polygon class="st20" points="369.6,310.4 372.7,304.2 361.5,304.2 358.5,310.4 					"/>
				</g>
			</g>
		</g>
	</g>
</g>
</svg>
