<?xml version="1.0" encoding="utf-8"?>
<!-- Generator: Adobe Illustrator 19.2.1, SVG Export Plug-In . SVG Version: 6.00 Build 0)  -->
<svg version="1.1" id="Layer_1" xmlns="http://www.w3.org/2000/svg" xmlns:xlink="http://www.w3.org/1999/xlink" x="0px" y="0px"
	 viewBox="0 0 500 500" style="enable-background:new 0 0 500 500;" xml:space="preserve">
<style type="text/css">
	.st0{fill:#E2D3E8;}
	.st1{fill:#F27081;}
	.st2{fill:#86A7D7;}
	.st3{fill:#7F2F84;}
	.st4{fill:#FAC681;}
	.st5{fill:#231B52;}
	.st6{fill:#F8ABA8;}
	.st7{fill:#E7E2EB;}
	.st8{opacity:0.18;}
	.st9{opacity:0.13;}
	.st10{fill:#6F4099;}
	.st11{fill:#F6947F;}
	.st12{fill:#FAF2F8;}
</style>
<g>
	<g>
		<circle class="st0" cx="330.2" cy="144.6" r="121.6"/>
		<g>
			<path class="st1" d="M341.9,27.2c3.7-1.1,7.7-1.6,11.5-0.8c3.8,0.8,7.4,3,9.3,6.4c2.2,3.8,2,8.6,1.7,13
				c-0.7,11.1-1.4,22.1-2,33.2c-0.2,3.1-0.4,6.3,0.8,9.1c1.2,2.8,4.2,5.2,7.2,4.5c1.5-0.3,2.8-1.3,4.3-1.9s3.4-0.6,4.3,0.7
				c0.5,0.8,0.6,1.8,0.5,2.7c-0.4,4.1-3,7.9-6.6,9.9c2.1-1,4.8,1.1,4.8,3.5c0,2.4-1.9,4.4-4,5.3c-2.2,0.9-4.6,0.8-7,0.8
				c1.9,0,3.4,2.1,3.2,4c-0.2,1.9-1.7,3.5-3.5,4.3c-1.8,0.8-3.8,0.8-5.7,0.6c-4.1-0.4-8.2-1.7-11.4-4.2c-5.6-4.5-7.9-12.1-8-19.3
				c-0.1-7.2,1.7-14.3,2.7-21.4c2.3-16.5,0.4-33.3-1.5-49.9c0.5-0.1,0.9-0.3,1.4-0.4"/>
		</g>
		<g>
			<path class="st2" d="M363.9,274.2c-4.5,4.3-6.2,11-1.9,16.2c4,4.9,11.8,5.9,16.9,2c12.1-9.4-0.5-26.7-13.6-23.1
				c-2.4,0.7-1.8,4.1,0.6,4.3c3.8,0.2,7.9,0.4,11,3.1c3.3,2.9,3.4,7.8,0.7,11.1c-7.1,8.8-19.6-4.2-12.1-12
				C366.4,274.7,364.9,273.2,363.9,274.2L363.9,274.2z"/>
		</g>
		<g>
			<path class="st3" d="M225.1,226.4c-1.7-1.8-3.6-3.2-4.4-5.6c-1.7-4.8,1.5-7.2,5.4-9c3.9-1.8,7-3.9,8.2-8.3
				c1.8-6.8-4-15.3-11.5-13.3c-2.4,0.7-1.7,3.7,0,4.7c2.3,1.3,5.4,2.1,5.8,5.3c0.5,4.2-3.7,5.5-6.6,7c-3.2,1.7-5.6,4.2-6.6,7.7
				c-1.7,6,1.9,14.1,8.8,13.8C225.2,228.6,225.8,227.1,225.1,226.4L225.1,226.4z"/>
		</g>
		<g>
			<path class="st4" d="M202.2,299.8c0.6,4,4.7,12.4,9.1,13.5c2.3,0.6,4-0.9,5.8-2.1c3.3-2.2,6.5-4.5,9.7-6.8c1.2-0.8,1.9-2.4,1-3.8
				c-2.9-4.4-5.7-8.8-8.6-13.2c-0.8-1.2-2.5-1.9-3.8-1c-3.6,2.5-7.4,4.8-10.6,7.8c-2.2,2,0.6,5.4,3.1,4c3.6-1.9,6.9-4.7,10.3-7
				c-1.3-0.3-2.5-0.7-3.8-1c2.9,4.4,5.7,8.8,8.6,13.2c0.3-1.3,0.7-2.5,1-3.8c-1.9,1.4-3.9,2.7-5.8,4.1c-1.1,0.8-4.8,4.2-6,4.1
				c-1.1-0.1-3.4-4-4-4.8c-1.4-1.6-2.7-3.2-4.4-4.4C202.9,298,202,298.9,202.2,299.8L202.2,299.8z"/>
		</g>
		<g>
			<path class="st4" d="M399.2,119.4c0.6,4,4.7,12.4,9.1,13.5c2.3,0.6,4-0.9,5.8-2.1c3.3-2.2,6.5-4.5,9.7-6.8c1.2-0.8,1.9-2.4,1-3.8
				c-2.9-4.4-5.7-8.8-8.6-13.2c-0.8-1.2-2.5-1.9-3.8-1c-3.6,2.5-7.4,4.8-10.6,7.8c-2.2,2,0.6,5.4,3.1,4c3.6-1.9,6.9-4.7,10.3-7
				c-1.3-0.3-2.5-0.7-3.8-1c2.9,4.4,5.7,8.8,8.6,13.2c0.3-1.3,0.7-2.5,1-3.8c-1.9,1.4-3.9,2.7-5.8,4.1c-1.1,0.8-4.8,4.2-6,4.1
				c-1.1-0.1-3.4-4-4-4.8c-1.4-1.6-2.7-3.2-4.4-4.4C399.9,117.6,399.1,118.5,399.2,119.4L399.2,119.4z"/>
		</g>
		<g>
			<path class="st1" d="M416.1,190.9c-7.4,3.4-14.7,7.1-22,10.8c-1.8,0.9-2,2.8-0.7,4.2c5.3,5.5,10.6,11.1,16.3,16.2
				c1.1,1,2.9,0.4,3.5-0.8c3.6-7.8,9-18.4,7.5-27.2c-0.4-2.2-3.8-3.3-4.7-0.8c-1.4,3.9-1.4,8.3-2.3,12.4c-1.1,4.7-2.4,9.4-4.5,13.8
				c1.3-0.1,2.6-0.3,3.9-0.4c-5.2-5.9-10.9-11.4-16.5-16.9c0,1.3-0.1,2.6-0.1,3.8c7.1-4,14.2-8.1,21.2-12.4
				C419.1,192.7,417.7,190.2,416.1,190.9L416.1,190.9z"/>
		</g>
		<g>
			<path class="st1" d="M278.7,293.2c5.4-6,10.8-12.7,15-19.5c1.3-2.2-1.9-4.7-3.6-2.7c-5.2,6.2-9.8,13.4-13.8,20.4
				C275.4,292.9,277.5,294.6,278.7,293.2L278.7,293.2z"/>
		</g>
		<g>
			<path class="st5" d="M458.9,80.2c-0.1-0.1-0.3-0.2-0.4-0.4c-1.8-1.6-4.8-1.9-6.5,0c-1.8,1.9-1.7,4.6,0,6.5
				c0.1,0.1,0.2,0.3,0.4,0.4c1.6,1.8,4.9,1.8,6.6,0C460.5,85,460.9,81.9,458.9,80.2L458.9,80.2z"/>
		</g>
		<g>
			<path class="st5" d="M247.5,253.7c-0.1-0.1-0.3-0.2-0.4-0.4c-1.8-1.6-4.8-1.9-6.5,0c-1.8,1.9-1.7,4.6,0,6.5
				c0.1,0.1,0.2,0.3,0.4,0.4c1.6,1.8,4.9,1.8,6.6,0C249.1,258.5,249.5,255.4,247.5,253.7L247.5,253.7z"/>
		</g>
		<path class="st6" d="M309.1,106.7l-80.7,30.2l7.7-32.6l-21-5.3c0,0-22.6,63.7-6.9,65.4c27.4,3,69-7.9,69-7.9L309.1,106.7z"/>
		<path class="st5" d="M281.1,179.7l0.2,63.8c21,25.8,94.2-7.6,94.2-7.6l0.9-26.1l1.7-62.2c-1.7-24.8-24.7-36.9-24.7-36.9
			c-9.5-4.7-24-7.4-37.1-6.8c-13.6,0.7-17,7.2-22.6,19.6C289.1,133.7,281.1,143.1,281.1,179.7z"/>
		<path class="st6" d="M350.1,43.9l-1,12.8c0,0,10.9,1.5,7.8,11.4c-3.1,9.9-10.5,5.6-10.5,5.6s-1.9,25.4-27.8,17.3
			c-20.7-6.4-19.4-33.2-16.8-56c1-8.8,9.4-14.9,18.1-13.2l15.6,3C344.5,26.5,350.8,34.7,350.1,43.9z"/>
		<path class="st6" d="M349.1,67.2l-7,37.3c-1.6,8.4-9.9,13.8-18.2,11.8l0,0c-7.7-1.8-12.7-9.4-11.3-17.2l3.8-21.4L349.1,67.2z"/>
		<g>
			<g>
				<g>
					<path class="st5" d="M320.4,67.7c0,0,0,0.1-0.1,0.3c-0.1,0.2-0.3,0.4-0.6,0.5c-0.3,0.1-0.8,0-1.2-0.3c-0.4-0.3-0.7-0.8-0.9-1.4
						c-0.4-1.2-0.3-2.6-0.2-4.1c0.1-1.5,0.2-3.2,0.3-5c0.2-3.5,0.5-6.7,0.6-9c0.1-1.2,0.2-2.1,0.3-2.7c0.1-0.6,0.1-1,0.2-1
						c0,0,0,0.4,0,1c0,0.6,0,1.6-0.1,2.7c-0.1,2.3-0.3,5.5-0.5,9c-0.1,1.8-0.2,3.4-0.3,5c-0.1,1.5-0.2,2.9,0.1,4
						c0.2,1.1,1.1,1.7,1.7,1.5C320.2,68.1,320.3,67.6,320.4,67.7z"/>
				</g>
			</g>
		</g>
		<g>
			<g>
				<g>
					<path class="st5" d="M311.9,88.3c0.1-0.1,1.2,0.8,3.4,1.9c2.1,1,5.3,2.1,8.9,2.1c3.6,0.1,6.8-0.8,9-1.8
						c2.2-0.9,3.4-1.8,3.4-1.7c0,0-0.3,0.3-0.8,0.7c-0.6,0.4-1.4,0.9-2.5,1.4c-2.2,1-5.4,2-9.2,1.9c-3.7-0.1-7-1.2-9.1-2.3
						c-1.1-0.6-1.9-1.1-2.4-1.5C312.2,88.6,311.9,88.3,311.9,88.3z"/>
				</g>
			</g>
		</g>
		<g>
			<g>
				<g>
					<path class="st5" d="M317,72.9c0.1-0.1,0.6,0.6,1.7,1.1c1.1,0.6,2.8,1,4.7,0.4c1.8-0.6,3-2,3.5-3.1c0.6-1.1,0.6-1.9,0.7-1.9
						c0,0,0.1,0.8-0.4,2.1c-0.5,1.2-1.7,2.8-3.7,3.4c-2,0.6-3.9,0.1-5-0.6C317.4,73.7,317,72.9,317,72.9z"/>
				</g>
			</g>
		</g>
		<g>
			<g>
				<g>
					<path class="st5" d="M349.9,69.2c0-0.1,0.6-0.1,1.5-0.5c0.4-0.2,0.8-0.6,1-1.1c0.2-0.5,0-1.2-0.6-1.4c-0.4-0.2-0.9,0-1.1,0.2
						l-0.4-0.2c0.9-2,1.7-3.5,1.8-3.4c0.1,0-0.5,1.6-1.3,3.6l-0.4-0.2c0.3-0.6,1.1-0.7,1.7-0.5c0.4,0.1,0.8,0.5,0.9,0.9
						c0.1,0.4,0.1,0.8,0,1.1c-0.2,0.7-0.8,1.1-1.3,1.3C350.6,69.5,349.9,69.3,349.9,69.2z"/>
				</g>
			</g>
		</g>
		<g>
			<g>
				<g>
					<path class="st5" d="M329.9,44.1c-0.1-0.1,1.2-0.7,2.8-0.2c1.6,0.4,2.5,1.5,2.4,1.6c-0.1,0.1-1.1-0.7-2.5-1.1
						C331.2,44,330,44.2,329.9,44.1z"/>
				</g>
			</g>
		</g>
		<g>
			<g>
				<g>
					<path class="st5" d="M307.5,40.5c-0.1-0.1,1.3-0.8,3-0.7c1.8,0.1,3,1.1,2.9,1.2c-0.1,0.1-1.3-0.5-2.9-0.7
						C308.8,40.2,307.5,40.7,307.5,40.5z"/>
				</g>
			</g>
		</g>
		<g>
			<path class="st1" d="M349.1,56.6c-7.3-7.1-9.4-18.8-11.4-28.8c-6.7,4.9-16,6.1-23.7,3.1c-2.4,2.9-5.3,5.3-8.4,7.4
				c-0.9,0.6-2,1.1-3,0.8c-1.2-0.4-1.8-1.8-2-3c-0.9-4-1-8.2,0.4-12s4.3-7.2,8.1-8.7c4.1-1.6,8.6-0.9,12.8,0.2
				c6.3,1.6,12.5,4.2,18.1,7.5c5.5,3.3,10.9,7.6,13.2,13.5c2.4,6,2.3,17.6-3.3,20.6"/>
		</g>
		<path class="st5" d="M306.3,106.4c7-2.8-47,17.3-47,17.3l5.5,36.9l20.5-6.7L306.3,106.4z"/>
		<path class="st6" d="M234.6,106.4c0,0,14.1-19.7,11.6-19.7c-2.5,0-3.8,3.7-8.7,6.3c0,0,7.8-24.6,5.4-24.1
			c-2.4,0.5-8.2,16.3-8.5,16.3c-0.4,0,5-17.7,3-18c-2-0.2-6.9,16.3-6.9,16.3s3.4-15.7,1.2-16c-2.1-0.4-5.2,14.1-5.2,14.1
			s2.5-12.1,0.6-12.4c-1.2-0.2-11.8,29.9-11.8,29.9C215.4,99,234.6,106.4,234.6,106.4"/>
		<g>
			<g>
				<g>
					<path class="st5" d="M343.6,176.6c0,0-0.1-0.3-0.1-0.7c-0.1-0.5-0.2-1.3-0.3-2.2c-0.2-1.9-0.6-4.6-1-7.9
						c-0.8-6.7-1.8-16-2.9-26.2c-0.3-2.6-0.4-5.1,0-7.6c0.4-2.4,1.3-4.7,2.8-6.5c2.8-3.6,6.8-5.3,10.1-6c3.3-0.7,6.1-0.5,8-0.4
						c0.9,0.1,1.7,0.2,2.2,0.3c0.5,0.1,0.7,0.1,0.7,0.2c0,0-0.3,0-0.8-0.1c-0.5-0.1-1.2-0.1-2.2-0.2c-1.9-0.1-4.6-0.2-7.9,0.5
						c-3.2,0.7-7.1,2.5-9.8,6c-1.4,1.7-2.3,3.9-2.6,6.3c-0.4,2.4-0.2,4.9,0,7.4c1.1,10.2,2.1,19.4,2.8,26.2c0.3,3.3,0.6,6,0.8,7.9
						c0.1,0.9,0.1,1.6,0.2,2.2C343.6,176.3,343.6,176.6,343.6,176.6z"/>
				</g>
			</g>
		</g>
		<g>
			<g>
				<g>
					
						<ellipse transform="matrix(0.1053 -0.9944 0.9944 0.1053 149.7491 519.5402)" class="st5" cx="363.6" cy="176.6" rx="0.3" ry="22"/>
				</g>
			</g>
		</g>
		<polygon class="st3" points="277.8,12 277.8,54.3 249.6,54.3 248.7,70.3 232.1,53.4 169.9,53.4 175.4,8.9 		"/>
		<g>
			<g>
				<path class="st7" d="M268.2,24.3c-27.8-0.4-55.7-0.6-83.5-0.1c-0.2,0-0.2,0.3,0,0.3c27.8,0.6,55.7,0.3,83.5-0.1
					C268.3,24.5,268.3,24.3,268.2,24.3L268.2,24.3z"/>
			</g>
		</g>
		<g>
			<g>
				<path class="st7" d="M268.2,32.4c-27.8-0.4-55.7-0.6-83.5-0.1c-0.2,0-0.2,0.3,0,0.3c27.8,0.6,55.7,0.3,83.5-0.1
					C268.3,32.6,268.3,32.4,268.2,32.4L268.2,32.4z"/>
			</g>
		</g>
		<g>
			<g>
				<path class="st7" d="M268.2,41c-17.1-0.3-34.3-0.4-51.3-0.1c-0.2,0-0.2,0.3,0,0.3c17.1,0.4,34.3,0.2,51.3-0.1
					C268.3,41.1,268.3,41,268.2,41L268.2,41z"/>
			</g>
		</g>
		<g>
			<g>
				<g>
					<path class="st5" d="M309.8,52c-0.1,0.1-0.5-0.5-1.1-1.1c-0.6-0.6-1.2-0.9-1.1-1.1c0-0.1,0.8,0.1,1.5,0.7
						C309.7,51.2,309.9,51.9,309.8,52z"/>
				</g>
			</g>
		</g>
		<g>
			<g>
				<g>
					<path class="st5" d="M331.5,54.5c-0.1,0.1-0.6-0.7-1.3-1.6c-0.7-0.9-1.3-1.6-1.2-1.7c0.1-0.1,0.9,0.4,1.6,1.4
						C331.3,53.5,331.6,54.4,331.5,54.5z"/>
				</g>
			</g>
		</g>
		<g class="st8">
			<g>
				<g>
					
						<ellipse transform="matrix(0.9548 -0.2973 0.2973 0.9548 -7.286 99.7084)" class="st5" cx="324.1" cy="73.8" rx="2.5" ry="1.3"/>
				</g>
			</g>
		</g>
		<g class="st9">
			<g>
				<g>
					
						<ellipse transform="matrix(1 -7.210709e-003 7.210709e-003 1 -0.4208 2.4074)" class="st5" cx="333.7" cy="59.6" rx="5.9" ry="1.3"/>
				</g>
			</g>
		</g>
		<g class="st9">
			<g>
				<g>
					
						<ellipse transform="matrix(1 -7.210672e-003 7.210672e-003 1 -0.4339 2.231)" class="st5" cx="309.2" cy="61.3" rx="5.9" ry="1.3"/>
				</g>
			</g>
		</g>
		<g>
			<g>
				<g>
					<path class="st10" d="M350.6,39.4c0,0,0.1-0.2,0.3-0.5c0.1-0.3,0.2-0.9,0-1.5c-0.2-0.7-0.5-1.4-1-2.2c-0.4-0.8-0.9-1.7-1.4-2.7
						c-1-1.9-1.9-3.6-2.5-4.9s-0.9-2.1-0.9-2.1c0.1,0,0.5,0.7,1.2,1.9s1.6,2.9,2.6,4.8c0.5,0.9,0.9,1.8,1.4,2.7
						c0.4,0.8,0.8,1.6,0.9,2.3c0.1,0.7,0.1,1.3-0.2,1.7C350.8,39.3,350.6,39.4,350.6,39.4z"/>
				</g>
			</g>
		</g>
		<polygon class="st2" points="287.5,161.5 282.7,225.2 349.1,234.1 344.6,160.6 		"/>
		<polyline class="st2" points="292.8,118.4 292.8,168.9 300.5,166 300.5,108.4 292.8,110.8 		"/>
		<path class="st2" d="M354.3,111.3c0,0-30,3.9-21.1,52.8l7.5,0.8c0,0-8.5-46,19.7-49.3L354.3,111.3z"/>
		<g>
			<path class="st6" d="M345.4,168.1c0,0,10.2,60.3-4.2,58.8c-47.4-4.9-75.7-5.5-75.7-5.5l-7.9,16.3c-0.2,2.8,89.8,28.5,104.3,20
				c10.2-6,26.5-22.2,19.1-70.6l-1.7-16.2L345.4,168.1z"/>
		</g>
		<path class="st5" d="M371.7,128.1c0,0,11.1,10.6,13.5,50.8l-42.8-4.7C342.5,174.2,335.3,105.8,371.7,128.1z"/>
		<path class="st6" d="M270.6,221.4c0,0-23.2-7.3-22.4-4.9c0.8,2.4,4.7,2.5,8.7,6.3c0,0-25.9,0.3-24.7,2.4c1.2,2.1,18.1,2.7,18.2,3
			c0.1,0.4-18.5,0.8-18.1,2.8c0.4,2,17.7,1.5,17.7,1.5s-16,1.7-15.7,3.8c0.3,2.1,15.1,0.6,15.1,0.6s-12.3,1.4-12,3.3
			c0.2,1.2,36.2,1.4,36.2,2.3C273.6,243.1,270.6,221.4,270.6,221.4"/>
		<g>
			<g>
				<g>
					<path class="st5" d="M300.2,161.8c0,0,0.1,0.3,0.2,0.8c0.1,0.5,0.2,1.2,0.2,2.1c0,0.9-0.1,2.1-0.7,3.2
						c-0.3,0.5-0.7,1.1-1.3,1.5c-0.6,0.4-1.2,0.7-2,0.7c-1.5,0-2.7-1-3.4-2c-0.7-1-1-2.1-1.1-3c-0.1-0.9-0.1-1.6-0.1-2.1
						c0-0.5,0-0.8,0.1-0.8c0.1,0,0.1,1.1,0.4,2.9c0.2,0.9,0.4,1.9,1.1,2.8c0.7,0.9,1.8,1.7,3,1.7c1.3,0,2.3-0.9,2.9-1.9
						c0.6-1,0.7-2,0.7-2.9C300.3,163,300.1,161.8,300.2,161.8z"/>
				</g>
			</g>
		</g>
		<g>
			<g>
				<g>
					<path class="st5" d="M295.5,162.8c0.1,0.1-0.3,0.3-0.2,0.9c0,0.3,0.2,0.6,0.4,0.8c0.3,0.2,0.7,0.2,1,0c0.3-0.2,0.5-0.5,0.4-0.9
						c-0.1-0.3-0.3-0.6-0.5-0.7c-0.5-0.3-0.9-0.1-0.9-0.2c-0.1,0,0.3-0.4,1.1-0.2c0.3,0.1,0.7,0.4,0.9,0.9c0,0.1,0,0.3,0,0.4
						c0,0.1,0,0.3-0.1,0.4c-0.1,0.3-0.3,0.5-0.5,0.6c-0.5,0.3-1.1,0.3-1.5,0c-0.4-0.3-0.5-0.8-0.5-1.2
						C294.9,163,295.5,162.8,295.5,162.8z"/>
				</g>
			</g>
		</g>
		<g>
			<g>
				<g>
					<path class="st5" d="M339.9,160.8c0,0,0.5,0.7,0.2,1.8c-0.1,0.6-0.4,1.2-1,1.8c-0.5,0.6-1.4,1-2.3,1.1c-1,0-1.8-0.4-2.4-0.9
						c-0.6-0.5-1-1.2-1.1-1.7c-0.2-0.6-0.2-1-0.1-1.4c0.1-0.3,0.1-0.5,0.2-0.5c0.1,0-0.1,0.7,0.3,1.7c0.2,0.5,0.6,1,1.1,1.5
						c0.5,0.4,1.3,0.8,2,0.7c1.6-0.1,2.7-1.5,3-2.5C340.1,161.5,339.8,160.8,339.9,160.8z"/>
				</g>
			</g>
		</g>
		<g>
			<g>
				<g>
					<path class="st5" d="M335.1,159c0,0,0.3-0.4,1.2-0.4c0.4,0,0.9,0.2,1.2,0.7c0.4,0.4,0.4,1.2,0,1.7c-0.2,0.3-0.4,0.5-0.7,0.6
						c-0.2,0.1-0.3,0.1-0.5,0.1c-0.1,0-0.1,0-0.2,0c-0.1,0-0.2,0-0.2-0.1c-0.6-0.3-0.7-0.9-0.7-1.3c0-0.4,0.3-0.7,0.5-0.8
						c0.2-0.1,0.3-0.1,0.3,0c0,0-0.1,0.1-0.2,0.2c-0.1,0.1-0.2,0.4-0.2,0.7c0,0.3,0.2,0.7,0.5,0.8c0,0,0.1,0,0.1,0
						c0.1,0,0.1,0,0.2,0c0.1,0,0.2,0,0.3-0.1c0.2-0.1,0.4-0.2,0.5-0.4c0.3-0.4,0.3-0.9,0-1.2c-0.2-0.3-0.6-0.5-0.9-0.6
						C335.6,158.9,335.1,159.1,335.1,159z"/>
				</g>
			</g>
		</g>
		<g>
			<g>
				<g>
					<path class="st5" d="M333.9,186.9c-0.1,0-0.3-0.9-0.4-2l0,0l0,0c0.5,0.5,0.1,0.1,0.2,0.2l0,0l0,0l0,0l0,0l-0.1,0l-0.1,0
						c-0.1,0-0.1,0-0.2,0c-0.1,0-0.2,0-0.4,0c-0.2,0-0.5,0-0.6-0.1c-0.4-0.1-0.6-0.1-0.6-0.2c0-0.1,0.2-0.1,0.6-0.2
						c0.2,0,0.4,0,0.6,0c0.1,0,0.3,0,0.4,0c0.1,0,0.1,0,0.2,0l0.1,0l0.1,0l0,0l0,0l0,0l0,0c0.1,0.1-0.2-0.2,0.2,0.2l0,0l0,0
						C334,186,334,186.9,333.9,186.9z"/>
				</g>
				<g>
					
						<ellipse transform="matrix(0.1495 -0.9888 0.9888 0.1495 96.0162 491.3328)" class="st5" cx="333.6" cy="189.9" rx="1" ry="0.3"/>
				</g>
				<g>
					
						<ellipse transform="matrix(0.3498 -0.9368 0.9368 0.3498 34.7985 437.5627)" class="st5" cx="332.6" cy="193.7" rx="1" ry="0.3"/>
				</g>
				<g>
					
						<ellipse transform="matrix(0.5312 -0.8473 0.8473 0.5312 -12.0545 372.803)" class="st5" cx="330.8" cy="197.3" rx="1" ry="0.3"/>
				</g>
				<g>
					
						<ellipse transform="matrix(0.6949 -0.7191 0.7191 0.6949 -43.94 297.3199)" class="st5" cx="328.4" cy="200.4" rx="1" ry="0.3"/>
				</g>
				<g>
					<path class="st5" d="M324.5,203.5c-0.1-0.1,0.2-0.4,0.7-0.8c0.5-0.3,0.9-0.5,1-0.3c0.1,0.1-0.2,0.5-0.7,0.8
						C325,203.5,324.6,203.7,324.5,203.5z"/>
				</g>
				<g>
					
						<ellipse transform="matrix(0.9383 -0.3457 0.3457 0.9383 -50.9557 123.8753)" class="st5" cx="321.8" cy="204.8" rx="1" ry="0.3"/>
				</g>
				<g>
					
						<ellipse transform="matrix(0.9901 -0.1406 0.1406 0.9901 -25.774 46.7486)" class="st5" cx="317.9" cy="205.7" rx="1" ry="0.3"/>
				</g>
				<g>
					
						<ellipse transform="matrix(6.219044e-002 -0.9981 0.9981 6.219044e-002 88.8807 506.3931)" class="st5" cx="313.9" cy="205.9" rx="0.3" ry="1"/>
				</g>
				<g>
					<ellipse transform="matrix(0.2638 -0.9646 0.9646 0.2638 30.2133 450.083)" class="st5" cx="310" cy="205.2" rx="0.3" ry="1"/>
				</g>
				<g>
					
						<ellipse transform="matrix(0.4642 -0.8858 0.8858 0.4642 -16.4047 380.4675)" class="st5" cx="306.3" cy="203.8" rx="0.3" ry="1"/>
				</g>
				<g>
					
						<ellipse transform="matrix(0.6532 -0.7572 0.7572 0.6532 -47.545 299.2968)" class="st5" cx="303" cy="201.6" rx="0.3" ry="1"/>
				</g>
				<g>
					
						<ellipse transform="matrix(0.8015 -0.598 0.598 0.8015 -59.1833 218.9678)" class="st5" cx="300.2" cy="198.6" rx="0.3" ry="1"/>
				</g>
				<g>
					
						<ellipse transform="matrix(0.9068 -0.4216 0.4216 0.9068 -54.5035 143.9356)" class="st5" cx="298.2" cy="195.2" rx="0.3" ry="1"/>
				</g>
				<g>
					
						<ellipse transform="matrix(0.9731 -0.2302 0.2302 0.9731 -36.0999 73.5023)" class="st5" cx="296.9" cy="191.4" rx="0.3" ry="1"/>
				</g>
				<g>
					
						<ellipse transform="matrix(0.9998 -2.219555e-002 2.219555e-002 0.9998 -4.0881 6.6245)" class="st5" cx="296.4" cy="187.5" rx="0.3" ry="1"/>
				</g>
				<g>
					<path class="st5" d="M297.7,183.6c0,0.1-0.5,0.2-1,0.2l0,0l0.3-0.2c-0.1,0.5-0.3,0.9-0.4,0.9c-0.1,0-0.2-0.5-0.1-1l0-0.2l0.2,0
						l0,0C297.3,183.3,297.7,183.4,297.7,183.6z"/>
				</g>
				<g>
					
						<ellipse transform="matrix(3.607904e-002 -0.9993 0.9993 3.607904e-002 106.3232 477.5946)" class="st5" cx="300.7" cy="183.7" rx="0.3" ry="1"/>
				</g>
				<g>
					
						<ellipse transform="matrix(3.607959e-002 -0.9993 0.9993 3.607959e-002 110.032 481.7284)" class="st5" cx="304.7" cy="183.8" rx="0.3" ry="1"/>
				</g>
				<g>
					
						<ellipse transform="matrix(3.607197e-002 -0.9993 0.9993 3.607197e-002 113.7432 485.8638)" class="st5" cx="308.7" cy="184" rx="0.3" ry="1"/>
				</g>
				<g>
					
						<ellipse transform="matrix(3.607904e-002 -0.9993 0.9993 3.607904e-002 117.4501 489.9963)" class="st5" cx="312.7" cy="184.1" rx="0.3" ry="1"/>
				</g>
				<g>
					
						<ellipse transform="matrix(3.607959e-002 -0.9993 0.9993 3.607959e-002 121.1589 494.13)" class="st5" cx="316.7" cy="184.3" rx="0.3" ry="1"/>
				</g>
				<g>
					
						<ellipse transform="matrix(3.607197e-002 -0.9993 0.9993 3.607197e-002 124.8702 498.2654)" class="st5" cx="320.7" cy="184.4" rx="0.3" ry="1"/>
				</g>
				<g>
					
						<ellipse transform="matrix(3.607904e-002 -0.9993 0.9993 3.607904e-002 128.577 502.3979)" class="st5" cx="324.7" cy="184.5" rx="0.3" ry="1"/>
				</g>
				<g>
					
						<ellipse transform="matrix(3.607959e-002 -0.9993 0.9993 3.607959e-002 132.2857 506.5317)" class="st5" cx="328.7" cy="184.7" rx="0.3" ry="1"/>
				</g>
			</g>
		</g>
	</g>
	<g>
		<path class="st11" d="M333.6,312.5c1.8-7.9,3.2-16.3,3.5-24.4c0.1-2.5-4-3.1-4.5-0.6c-1.5,8-2,16.5-2.1,24.6
			C330.6,313.7,333.2,314.2,333.6,312.5L333.6,312.5z"/>
	</g>
	<g>
		<path class="st5" d="M375.1,339.5c-0.1-0.1-0.3-0.2-0.4-0.4c-1.8-1.6-4.8-1.9-6.5,0c-1.8,1.9-1.7,4.6,0,6.5
			c0.1,0.1,0.2,0.3,0.4,0.4c1.6,1.8,4.9,1.8,6.6,0C376.7,344.3,377,341.2,375.1,339.5L375.1,339.5z"/>
	</g>
	<g>
		<circle class="st0" cx="160.2" cy="372.4" r="121.6"/>
		<path class="st6" d="M178.6,331.4l80.7,30.2l-7.7-32.6l21-5.3c0,0,22.6,63.7,6.9,65.4c-27.4,3-69-7.9-69-7.9L178.6,331.4z"/>
		<path class="st10" d="M206.6,404.4l-0.2,63.8c-21,25.8-94.2-7.6-94.2-7.6l-0.9-26.1l-1.7-62.2c1.7-24.8,24.7-36.9,24.7-36.9
			c9.5-4.7,24-7.4,37.1-6.8c13.6,0.7,17,7.2,22.6,19.6C198.6,358.4,206.6,367.8,206.6,404.4z"/>
		<g>
			<path class="st6" d="M142.3,392.8c0,0-10.2,60.3,4.2,58.8c47.4-4.9,75.7-5.5,75.7-5.5l7.9,16.3c0.2,2.8-89.8,28.5-104.3,20
				c-10.2-6-26.5-22.2-19.1-70.6l1.7-16.2L142.3,392.8z"/>
		</g>
		<path class="st10" d="M116.2,352.8c0,0-11.1,10.6-13.5,50.8l42.8-4.7C145.5,398.9,152.6,330.5,116.2,352.8z"/>
		<path class="st6" d="M137.7,268.6l1,12.8c0,0-10.9,1.5-7.8,11.4c3.1,9.9,10.5,5.6,10.5,5.6s1.9,25.4,27.8,17.3
			c20.7-6.4,19.4-33.2,16.8-56c-1-8.8-9.4-14.9-18.1-13.2l-15.6,3C143.3,251.2,137,259.4,137.7,268.6z"/>
		<path class="st6" d="M138.6,291.9l7,37.3c1.6,8.4,9.9,13.8,18.2,11.8l0,0c7.7-1.8,12.7-9.4,11.3-17.2l-3.8-21.4L138.6,291.9z"/>
		<g>
			<g>
				<g>
					<path class="st5" d="M167.4,292.4c0-0.1,0.2,0.4,0.7,0.6c0.6,0.1,1.5-0.4,1.7-1.5c0.3-1.1,0.2-2.5,0.1-4
						c-0.1-1.5-0.2-3.2-0.3-5c-0.2-3.5-0.4-6.7-0.5-9c0-1.2-0.1-2.1-0.1-2.7c0-0.6,0-1,0-1c0,0,0.1,0.4,0.2,1
						c0.1,0.6,0.2,1.6,0.3,2.7c0.2,2.3,0.4,5.5,0.6,9c0.1,1.8,0.2,3.4,0.3,5c0.1,1.5,0.2,3-0.2,4.1c-0.2,0.6-0.5,1.1-0.9,1.4
						c-0.4,0.3-0.9,0.4-1.2,0.3c-0.3-0.1-0.5-0.4-0.6-0.5C167.4,292.5,167.4,292.4,167.4,292.4z"/>
				</g>
			</g>
		</g>
		<g>
			<g>
				<g>
					<path class="st5" d="M175.8,313c0,0-0.3,0.3-0.8,0.7c-0.5,0.4-1.3,0.9-2.4,1.5c-2.1,1.1-5.4,2.3-9.1,2.3
						c-3.7,0.1-7-0.9-9.2-1.9c-1.1-0.5-1.9-1-2.5-1.4c-0.6-0.4-0.8-0.6-0.8-0.7c0.1-0.1,1.3,0.8,3.4,1.7c2.2,0.9,5.4,1.8,9,1.8
						c3.6-0.1,6.8-1.1,8.9-2.1C174.6,313.8,175.7,312.9,175.8,313z"/>
				</g>
			</g>
		</g>
		<g>
			<g>
				<g>
					<path class="st5" d="M170.7,297.6c0,0-0.4,0.8-1.5,1.5c-1.1,0.7-3,1.2-5,0.6c-2-0.6-3.2-2.2-3.7-3.4c-0.5-1.2-0.4-2.1-0.4-2.1
						c0.1,0,0.1,0.8,0.7,1.9c0.5,1.1,1.7,2.5,3.5,3.1c1.8,0.6,3.6,0.1,4.7-0.4C170.1,298.2,170.7,297.5,170.7,297.6z"/>
				</g>
			</g>
		</g>
		<g>
			<g>
				<g>
					<path class="st5" d="M137.8,293.9c0,0-0.6,0.2-1.6-0.2c-0.5-0.2-1-0.6-1.3-1.3c-0.1-0.3-0.2-0.7,0-1.1c0.1-0.4,0.5-0.8,0.9-0.9
						c0.6-0.2,1.3-0.1,1.7,0.5l-0.4,0.2c-0.9-2.1-1.4-3.6-1.3-3.6c0.1,0,0.9,1.4,1.8,3.4l-0.4,0.2c-0.2-0.3-0.7-0.4-1.1-0.2
						c-0.6,0.2-0.7,0.9-0.6,1.4c0.2,0.6,0.6,0.9,1,1.1C137.2,293.9,137.8,293.8,137.8,293.9z"/>
				</g>
			</g>
		</g>
		<g>
			<g>
				<g>
					<path class="st5" d="M157.8,268.8c0,0.2-1.3-0.1-2.7,0.3c-1.5,0.4-2.4,1.2-2.5,1.1c-0.1-0.1,0.8-1.2,2.4-1.6
						C156.6,268.1,157.9,268.7,157.8,268.8z"/>
				</g>
			</g>
		</g>
		<g>
			<g>
				<g>
					<path class="st5" d="M180.3,265.2c-0.1,0.1-1.4-0.3-3-0.1c-1.6,0.1-2.9,0.8-2.9,0.7c-0.1-0.1,1.1-1,2.9-1.2
						C179,264.4,180.4,265.1,180.3,265.2z"/>
				</g>
			</g>
		</g>
		<g>
			<path class="st5" d="M138.6,281.3c7.3-7.1,9.4-18.8,11.4-28.8c6.7,4.9,16,6.1,23.7,3.1c2.4,2.9,5.3,5.3,8.4,7.4
				c0.9,0.6,2,1.1,3,0.8c1.2-0.4,1.8-1.8,2-3c0.9-4,1-8.2-0.4-12c-1.4-3.8-4.3-7.2-8.1-8.7c-4.1-1.6-8.6-0.9-12.8,0.2
				c-6.3,1.6-12.5,4.2-18.1,7.5c-5.5,3.3-10.9,7.6-13.2,13.5c-2.4,6-2.3,17.6,3.3,20.6"/>
		</g>
		<path class="st10" d="M181.4,331.1c-7-2.8,47,17.3,47,17.3l-5.5,36.9l-20.5-6.7L181.4,331.1z"/>
		<path class="st6" d="M217.2,446c0,0,23.2-7.3,22.4-4.9c-0.8,2.4-4.7,2.5-8.7,6.3c0,0,25.9,0.3,24.7,2.4c-1.2,2.1-18.1,2.7-18.2,3
			c-0.1,0.4,18.5,0.8,18.1,2.8c-0.4,2-17.7,1.5-17.7,1.5s16,1.7,15.7,3.8c-0.3,2.1-15.1,0.6-15.1,0.6s12.3,1.4,12,3.3
			c-0.2,1.2-36.2,1.4-36.2,2.3C214.1,467.8,217.2,446,217.2,446"/>
		<path class="st6" d="M253.1,331.1c0,0-14.1-19.7-11.6-19.7c2.5,0,3.8,3.7,8.7,6.3c0,0-7.8-24.6-5.4-24.1
			c2.4,0.5,8.2,16.3,8.5,16.3c0.4,0-5-17.7-3-18c2-0.2,6.9,16.3,6.9,16.3s-3.4-15.7-1.2-16c2.1-0.4,5.2,14.1,5.2,14.1
			s-2.5-12.1-0.6-12.4c1.2-0.2,11.8,29.9,11.8,29.9C272.3,323.7,253.1,331.1,253.1,331.1"/>
		<g>
			<g>
				<g>
					<path class="st12" d="M123.1,385.3c0,0,0.1,0.2,0.2,0.7c0.1,0.5,0.2,1.2,0.2,2c0,0.9-0.4,2-1.4,2.7c-0.5,0.3-1.2,0.6-1.9,0.4
						c-0.7-0.1-1.2-0.6-1.7-1.1c-0.4-0.5-0.8-1-1.3-1.3c-0.4-0.3-1-0.5-1.5-0.6c-1-0.1-2,0.3-2.5,0.8c-0.6,0.6-0.8,1.2-0.9,1.7
						c-0.1,0.4-0.1,0.7-0.1,0.7c0,0-0.1-0.3-0.1-0.7c0-0.5,0.2-1.2,0.8-1.9c0.6-0.7,1.7-1.2,2.9-1.1c0.6,0.1,1.2,0.3,1.7,0.7
						c0.5,0.4,0.9,0.9,1.3,1.4c0.4,0.5,0.9,0.8,1.4,1c0.5,0.1,1.1,0,1.5-0.3c0.9-0.6,1.2-1.5,1.3-2.3c0.1-0.8,0-1.5,0-2
						C123.1,385.6,123.1,385.3,123.1,385.3z"/>
				</g>
			</g>
		</g>
		<g>
			<g>
				<g>
					<path class="st12" d="M135.8,374.3c0,0,0.2-0.2,0.5-0.5c0.4-0.3,0.9-0.8,1.7-1.2c0.8-0.4,1.9-0.7,3-0.2
						c0.6,0.2,1.1,0.7,1.3,1.4c0.2,0.7,0.1,1.4-0.1,2c-0.2,0.6-0.4,1.2-0.5,1.8c-0.1,0.6,0,1.1,0.2,1.6c0.4,1,1.3,1.6,2,1.7
						c0.8,0.2,1.5,0.1,1.9-0.1c0.4-0.1,0.7-0.3,0.7-0.3c0,0-0.2,0.2-0.6,0.4c-0.4,0.2-1.2,0.4-2,0.3c-0.9-0.1-1.9-0.8-2.4-1.9
						c-0.3-0.5-0.4-1.2-0.3-1.8c0.1-0.6,0.3-1.3,0.5-1.9c0.2-0.6,0.3-1.2,0.1-1.7c-0.2-0.5-0.6-0.9-1-1.1c-0.9-0.4-2-0.3-2.7,0.1
						c-0.7,0.3-1.3,0.8-1.7,1C136.1,374.2,135.8,374.4,135.8,374.3z"/>
				</g>
			</g>
		</g>
		<g>
			<g>
				<g>
					<path class="st12" d="M135,347.1c0,0,0.2-0.2,0.5-0.5c0.4-0.3,0.9-0.8,1.7-1.2c0.8-0.4,1.9-0.7,3-0.2c0.6,0.2,1.1,0.7,1.3,1.4
						c0.2,0.7,0.1,1.4-0.1,2c-0.2,0.6-0.4,1.2-0.5,1.8c-0.1,0.6,0,1.1,0.2,1.6c0.4,1,1.3,1.6,2,1.7c0.8,0.2,1.5,0.1,1.9-0.1
						c0.4-0.1,0.7-0.3,0.7-0.3c0,0-0.2,0.2-0.6,0.4c-0.4,0.2-1.2,0.4-2,0.3c-0.9-0.1-1.9-0.8-2.4-1.9c-0.3-0.5-0.4-1.2-0.3-1.8
						c0.1-0.6,0.3-1.3,0.5-1.9c0.2-0.6,0.3-1.2,0.1-1.7c-0.2-0.5-0.6-0.9-1-1.1c-0.9-0.4-2-0.3-2.7,0.1c-0.7,0.3-1.3,0.8-1.7,1
						C135.2,347,135,347.1,135,347.1z"/>
				</g>
			</g>
		</g>
		<g>
			<g>
				<g>
					<path class="st12" d="M162,382.6c0,0-0.2-0.1-0.6-0.5c-0.3-0.3-0.9-0.8-1.3-1.5c-0.5-0.7-0.8-1.8-0.4-3
						c0.2-0.6,0.6-1.2,1.2-1.4c0.6-0.3,1.4-0.2,2-0.1c0.6,0.1,1.2,0.3,1.8,0.3c0.6,0,1.1-0.1,1.6-0.4c0.9-0.5,1.4-1.4,1.5-2.2
						c0.1-0.8-0.1-1.5-0.3-1.9c-0.2-0.4-0.4-0.6-0.3-0.7c0,0,0.2,0.1,0.5,0.6c0.3,0.4,0.5,1.1,0.4,2c-0.1,0.9-0.6,2-1.7,2.6
						c-0.5,0.3-1.1,0.5-1.8,0.5c-0.7,0-1.3-0.2-1.9-0.3c-0.6-0.1-1.2-0.2-1.7,0.1c-0.5,0.2-0.8,0.7-1,1.1c-0.4,1-0.1,2,0.3,2.7
						c0.4,0.7,0.9,1.2,1.2,1.6C161.9,382.4,162,382.6,162,382.6z"/>
				</g>
			</g>
		</g>
		<g>
			<g>
				<g>
					<path class="st12" d="M180.4,411.1c0,0-0.2,0.2-0.5,0.5c-0.4,0.3-0.9,0.7-1.7,1.1c-0.8,0.3-2,0.5-3.1,0c-0.5-0.3-1-0.8-1.2-1.5
						c-0.2-0.7,0-1.4,0.2-2c0.2-0.6,0.5-1.2,0.6-1.7c0.1-0.5,0-1.1-0.1-1.6c-0.4-1-1.1-1.6-1.9-1.9c-0.8-0.2-1.5-0.2-1.9,0
						c-0.4,0.1-0.7,0.2-0.7,0.2c0,0,0.2-0.2,0.6-0.4c0.4-0.2,1.2-0.3,2.1-0.1c0.9,0.2,1.8,0.9,2.3,2.1c0.2,0.6,0.3,1.2,0.2,1.9
						c-0.1,0.6-0.4,1.2-0.6,1.8c-0.2,0.6-0.4,1.2-0.2,1.7c0.1,0.5,0.5,0.9,1,1.2c0.9,0.5,1.9,0.4,2.7,0.1c0.8-0.3,1.3-0.7,1.8-0.9
						C180.2,411.2,180.4,411.1,180.4,411.1z"/>
				</g>
			</g>
		</g>
		<g>
			<g>
				<g>
					<path class="st12" d="M202.1,366.1c0,0-0.2,0.2-0.5,0.5c-0.4,0.3-0.9,0.7-1.7,1.1c-0.8,0.3-2,0.5-3.1,0c-0.5-0.3-1-0.8-1.2-1.5
						c-0.2-0.7,0-1.4,0.2-2c0.2-0.6,0.5-1.2,0.6-1.7c0.1-0.5,0-1.1-0.1-1.6c-0.4-1-1.1-1.6-1.9-1.9c-0.8-0.2-1.5-0.2-1.9,0
						c-0.4,0.1-0.7,0.2-0.7,0.2c0,0,0.2-0.2,0.6-0.4c0.4-0.2,1.2-0.3,2.1-0.1c0.9,0.2,1.8,0.9,2.3,2.1c0.2,0.6,0.3,1.2,0.2,1.9
						c-0.1,0.6-0.4,1.2-0.6,1.8c-0.2,0.6-0.4,1.2-0.2,1.7c0.1,0.5,0.5,0.9,1,1.2c0.9,0.5,1.9,0.4,2.7,0.1c0.8-0.3,1.3-0.7,1.8-0.9
						C201.9,366.2,202.1,366.1,202.1,366.1z"/>
				</g>
			</g>
		</g>
		<g>
			<g>
				<g>
					<path class="st12" d="M216.9,359.3c0,0,0.3,0.1,0.7,0.3c0.4,0.3,1,0.6,1.6,1.3c0.6,0.6,1.2,1.7,1,2.9c-0.1,0.6-0.4,1.2-1,1.6
						c-0.6,0.4-1.3,0.5-2,0.5c-0.7,0-1.3-0.1-1.8,0c-0.6,0.1-1.1,0.3-1.5,0.7c-0.8,0.7-1.2,1.6-1.1,2.4c0,0.8,0.3,1.4,0.6,1.8
						c0.3,0.4,0.5,0.6,0.4,0.6c0,0-0.3-0.1-0.6-0.5c-0.3-0.4-0.7-1-0.8-1.9c-0.1-0.9,0.3-2,1.2-2.8c0.5-0.4,1-0.7,1.7-0.8
						c0.6-0.1,1.3-0.1,1.9,0c0.6,0,1.2-0.1,1.7-0.4c0.4-0.3,0.7-0.8,0.8-1.3c0.2-1-0.3-2-0.8-2.6c-0.5-0.6-1.1-1-1.4-1.3
						C217.1,359.5,216.9,359.3,216.9,359.3z"/>
				</g>
			</g>
		</g>
		<g>
			<g>
				<g>
					<path class="st12" d="M157,434.4c0,0-0.2,0.2-0.5,0.5c-0.4,0.3-0.9,0.7-1.7,1.1c-0.8,0.3-2,0.5-3.1,0c-0.5-0.3-1-0.8-1.2-1.5
						c-0.2-0.7,0-1.4,0.2-2c0.2-0.6,0.5-1.2,0.6-1.7c0.1-0.5,0-1.1-0.1-1.6c-0.4-1-1.1-1.6-1.9-1.9c-0.8-0.2-1.5-0.2-1.9,0
						c-0.4,0.1-0.7,0.2-0.7,0.2c0,0,0.2-0.2,0.6-0.4c0.4-0.2,1.2-0.3,2.1-0.1c0.9,0.2,1.8,0.9,2.3,2.1c0.2,0.6,0.3,1.2,0.2,1.9
						c-0.1,0.6-0.4,1.2-0.6,1.8c-0.2,0.6-0.4,1.2-0.2,1.7c0.1,0.5,0.5,0.9,1,1.2c0.9,0.5,1.9,0.4,2.7,0.1c0.8-0.3,1.3-0.7,1.8-0.9
						C156.8,434.5,157,434.3,157,434.4z"/>
				</g>
			</g>
		</g>
		<g>
			<g>
				<g>
					<path class="st12" d="M189.2,391.1c0,0-0.2-0.2-0.5-0.5c-0.3-0.4-0.8-0.9-1.1-1.7c-0.4-0.8-0.6-1.9-0.1-3.1
						c0.3-0.5,0.7-1.1,1.4-1.3c0.7-0.2,1.4-0.1,2,0.1c0.6,0.2,1.2,0.4,1.8,0.5c0.6,0.1,1.1,0,1.6-0.2c1-0.4,1.6-1.2,1.8-2
						c0.2-0.8,0.1-1.5,0-1.9c-0.1-0.4-0.3-0.7-0.2-0.7c0,0,0.2,0.2,0.4,0.6c0.2,0.4,0.4,1.2,0.2,2.1c-0.2,0.9-0.8,1.9-2,2.3
						c-0.5,0.2-1.2,0.4-1.8,0.3c-0.6-0.1-1.2-0.3-1.8-0.5c-0.6-0.2-1.2-0.3-1.7-0.1c-0.5,0.1-0.9,0.5-1.1,1c-0.5,0.9-0.3,2,0,2.7
						c0.3,0.8,0.7,1.3,1,1.7C189.1,390.8,189.2,391.1,189.2,391.1z"/>
				</g>
			</g>
		</g>
		<g>
			<g>
				<g>
					<path class="st12" d="M194.9,414.3c0,0-0.2-0.2-0.5-0.5c-0.3-0.4-0.8-0.9-1.1-1.7c-0.4-0.8-0.6-1.9-0.1-3.1
						c0.3-0.5,0.7-1.1,1.4-1.3c0.7-0.2,1.4-0.1,2,0.1c0.6,0.2,1.2,0.4,1.8,0.5c0.6,0.1,1.1,0,1.6-0.2c1-0.4,1.6-1.2,1.8-2
						c0.2-0.8,0.1-1.5,0-1.9c-0.1-0.4-0.3-0.7-0.2-0.7c0,0,0.2,0.2,0.4,0.6c0.2,0.4,0.4,1.2,0.2,2.1c-0.2,0.9-0.8,1.9-2,2.3
						c-0.5,0.2-1.2,0.4-1.8,0.3c-0.6-0.1-1.2-0.3-1.8-0.5c-0.6-0.2-1.2-0.3-1.7-0.1c-0.5,0.1-0.9,0.5-1.1,1c-0.5,0.9-0.3,2,0,2.7
						c0.3,0.8,0.7,1.3,1,1.7C194.8,414.1,195,414.3,194.9,414.3z"/>
				</g>
			</g>
		</g>
		<g>
			<g>
				<g>
					<path class="st12" d="M148.4,404.4c0,0-0.1-0.3,0-0.7c0-0.5,0-1.2,0.3-2c0.2-0.8,0.8-1.9,2-2.3c0.6-0.2,1.3-0.3,1.9,0
						c0.6,0.3,1.1,0.9,1.4,1.4c0.3,0.6,0.6,1.1,1,1.6c0.4,0.4,0.8,0.7,1.3,0.9c1,0.4,2,0.2,2.7-0.3c0.7-0.4,1.1-1,1.2-1.4
						c0.2-0.4,0.2-0.7,0.3-0.7c0,0,0.1,0.3-0.1,0.7c-0.1,0.5-0.5,1.1-1.2,1.7c-0.7,0.5-1.9,0.8-3,0.4c-0.6-0.2-1.1-0.5-1.5-1
						c-0.4-0.5-0.7-1.1-1-1.6c-0.3-0.5-0.7-1-1.2-1.2c-0.5-0.2-1-0.2-1.5,0c-1,0.4-1.6,1.2-1.8,2c-0.3,0.8-0.4,1.5-0.4,1.9
						C148.5,404.2,148.5,404.4,148.4,404.4z"/>
				</g>
			</g>
		</g>
		<g>
			<g>
				<g>
					<path class="st12" d="M190.4,433.1c0,0-0.1-0.3,0-0.7c0-0.5,0-1.2,0.3-2c0.2-0.8,0.8-1.9,2-2.3c0.6-0.2,1.3-0.3,1.9,0
						c0.6,0.3,1.1,0.9,1.4,1.4c0.3,0.6,0.6,1.1,1,1.6c0.4,0.4,0.8,0.7,1.3,0.9c1,0.4,2,0.2,2.7-0.3c0.7-0.4,1.1-1,1.2-1.4
						c0.2-0.4,0.2-0.7,0.3-0.7c0,0,0.1,0.3-0.1,0.7c-0.1,0.5-0.5,1.1-1.2,1.7c-0.7,0.5-1.9,0.8-3,0.4c-0.6-0.2-1.1-0.5-1.5-1
						c-0.4-0.5-0.7-1.1-1-1.6c-0.3-0.5-0.7-1-1.2-1.2c-0.5-0.2-1-0.2-1.5,0c-1,0.4-1.6,1.2-1.8,2c-0.3,0.8-0.4,1.5-0.4,1.9
						C190.5,432.9,190.5,433.1,190.4,433.1z"/>
				</g>
			</g>
		</g>
		<g>
			<g>
				<g>
					<path class="st12" d="M189.2,346.2c0,0-0.1-0.3,0-0.7c0-0.5,0-1.2,0.3-2c0.2-0.8,0.8-1.9,2-2.3c0.6-0.2,1.3-0.3,1.9,0
						c0.6,0.3,1.1,0.9,1.4,1.4c0.3,0.6,0.6,1.1,1,1.6c0.4,0.4,0.8,0.7,1.3,0.9c1,0.4,2,0.2,2.7-0.3c0.7-0.4,1.1-1,1.2-1.4
						c0.2-0.4,0.2-0.7,0.3-0.7c0,0,0.1,0.3-0.1,0.7c-0.1,0.5-0.5,1.1-1.2,1.7c-0.7,0.5-1.9,0.8-3,0.4c-0.6-0.2-1.1-0.5-1.5-1
						c-0.4-0.5-0.7-1.1-1-1.6c-0.3-0.5-0.7-1-1.2-1.2c-0.5-0.2-1-0.2-1.5,0c-1,0.4-1.6,1.2-1.8,2c-0.3,0.8-0.4,1.5-0.4,1.9
						C189.3,345.9,189.2,346.2,189.2,346.2z"/>
				</g>
			</g>
		</g>
		<g>
			<g>
				<g>
					<path class="st12" d="M175.5,444.7c0,0-0.3-0.1-0.7-0.2c-0.4-0.2-1.1-0.5-1.7-1.1c-0.7-0.5-1.4-1.5-1.3-2.7
						c0-0.6,0.2-1.3,0.7-1.7c0.5-0.5,1.2-0.6,1.9-0.7c0.7-0.1,1.3-0.1,1.8-0.3c0.5-0.2,1-0.5,1.4-0.8c0.7-0.8,0.9-1.8,0.8-2.6
						c-0.1-0.8-0.5-1.4-0.8-1.7c-0.3-0.3-0.5-0.5-0.5-0.5c0,0,0.3,0.1,0.6,0.4c0.4,0.3,0.8,0.9,1,1.8c0.2,0.9,0,2.1-0.8,2.9
						c-0.4,0.4-0.9,0.8-1.6,1c-0.6,0.2-1.3,0.2-1.9,0.3c-0.6,0.1-1.2,0.2-1.6,0.6c-0.4,0.3-0.6,0.9-0.6,1.4c0,1,0.5,1.9,1.1,2.5
						c0.6,0.6,1.2,0.9,1.6,1.2C175.3,444.5,175.5,444.6,175.5,444.7z"/>
				</g>
			</g>
		</g>
		<g>
			<g>
				<g>
					<path class="st12" d="M125.7,359.3c0,0,0.2,0.2,0.5,0.6c0.3,0.4,0.7,1,1,1.8c0.3,0.8,0.4,2-0.2,3c-0.3,0.5-0.8,1-1.5,1.1
						c-0.7,0.1-1.4-0.1-2-0.3c-0.6-0.3-1.2-0.6-1.7-0.7c-0.5-0.1-1.1-0.1-1.6,0c-1,0.3-1.7,1.1-2,1.8c-0.3,0.8-0.2,1.4-0.2,1.9
						c0.1,0.4,0.2,0.7,0.2,0.7c0,0-0.2-0.2-0.4-0.7c-0.2-0.5-0.3-1.2,0-2.1c0.3-0.9,1-1.8,2.2-2.1c0.6-0.2,1.2-0.2,1.9-0.1
						c0.6,0.2,1.2,0.5,1.8,0.7c0.6,0.2,1.2,0.4,1.7,0.3c0.5-0.1,0.9-0.5,1.2-0.9c0.6-0.9,0.5-1.9,0.3-2.7c-0.2-0.8-0.6-1.4-0.8-1.8
						C125.8,359.5,125.7,359.3,125.7,359.3z"/>
				</g>
			</g>
		</g>
		<g>
			<g>
				<g>
					<path class="st12" d="M173.8,350.7c0,0,0.2,0.2,0.5,0.6c0.3,0.4,0.7,1,1,1.8c0.3,0.8,0.4,2-0.2,3c-0.3,0.5-0.8,1-1.5,1.1
						c-0.7,0.1-1.4-0.1-2-0.3c-0.6-0.3-1.2-0.6-1.7-0.7c-0.5-0.1-1.1-0.1-1.6,0c-1,0.3-1.7,1.1-2,1.8c-0.3,0.8-0.2,1.4-0.2,1.9
						c0.1,0.4,0.2,0.7,0.2,0.7c0,0-0.2-0.2-0.4-0.7c-0.2-0.5-0.3-1.2,0-2.1c0.3-0.9,1-1.8,2.2-2.1c0.6-0.2,1.2-0.2,1.9-0.1
						c0.6,0.2,1.2,0.5,1.8,0.7c0.6,0.2,1.2,0.4,1.7,0.3c0.5-0.1,0.9-0.5,1.2-0.9c0.6-0.9,0.5-1.9,0.3-2.7c-0.2-0.8-0.6-1.4-0.8-1.8
						C173.8,350.9,173.7,350.7,173.8,350.7z"/>
				</g>
			</g>
		</g>
		<g>
			<g>
				<g>
					<path class="st5" d="M144.1,401.3c0,0,0-0.3,0-0.8c0-0.5,0.1-1.3,0.2-2.2c0.2-1.9,0.5-4.6,0.8-7.9c0.7-6.8,1.7-16,2.8-26.2
						c0.3-2.5,0.4-5.1,0-7.4c-0.3-2.4-1.3-4.5-2.6-6.3c-2.7-3.5-6.6-5.3-9.8-6c-3.3-0.7-6-0.6-7.9-0.5c-0.9,0.1-1.7,0.1-2.2,0.2
						c-0.5,0.1-0.8,0.1-0.8,0.1s0.3-0.1,0.7-0.2c0.5-0.1,1.2-0.2,2.2-0.3c1.9-0.2,4.7-0.3,8,0.4c3.3,0.7,7.2,2.5,10.1,6
						c1.4,1.8,2.4,4,2.8,6.5c0.4,2.4,0.2,5,0,7.6c-1.1,10.2-2.2,19.4-2.9,26.2c-0.4,3.3-0.7,6-1,7.9c-0.1,0.9-0.2,1.6-0.3,2.2
						C144.2,401,144.1,401.3,144.1,401.3z"/>
				</g>
			</g>
		</g>
		<g>
			<g>
				<g>
					
						<ellipse transform="matrix(0.9944 -0.1053 0.1053 0.9944 -41.5426 15.2966)" class="st5" cx="124.2" cy="401.2" rx="22" ry="0.3"/>
				</g>
			</g>
		</g>
		<g>
			<path class="st3" d="M250.5,416.2c0.4-2.4,0.3-4.8,1.7-6.9c2.7-4.3,6.6-3.2,10.4-1.3c3.8,1.9,7.4,3.1,11.6,1.3
				c6.5-2.8,9.5-12.6,3.3-17.2c-2-1.5-4,1-3.7,2.9c0.4,2.6,1.7,5.5-0.6,7.8c-3,3-6.6,0.5-9.6-0.9c-3.3-1.5-6.7-1.8-10.1-0.4
				c-5.8,2.3-10,10.2-5.4,15.5C248.8,417.6,250.3,417.3,250.5,416.2L250.5,416.2z"/>
		</g>
		<g>
			<path class="st1" d="M294.7,323.3c-4.5,4.3-6.2,11-1.9,16.2c4,4.9,11.8,5.9,16.9,2c12.1-9.4-0.5-26.7-13.6-23.1
				c-2.4,0.7-1.8,4.1,0.6,4.3c3.8,0.2,7.9,0.4,11,3.1c3.3,2.9,3.4,7.8,0.7,11.1c-7.1,8.8-19.6-4.2-12.1-12
				C297.1,323.8,295.7,322.3,294.7,323.3L294.7,323.3z"/>
		</g>
		<g>
			<path class="st2" d="M105.8,314.7c-4.5,4.3-6.2,11-1.9,16.2c4,4.9,11.8,5.9,16.9,2c12.1-9.4-0.5-26.7-13.6-23.1
				c-2.4,0.7-1.8,4.1,0.6,4.3c3.8,0.2,7.9,0.4,11,3.1c3.3,2.9,3.4,7.8,0.7,11.1c-7.1,8.8-19.6-4.2-12.1-12
				C108.3,315.2,106.8,313.7,105.8,314.7L105.8,314.7z"/>
		</g>
		<g>
			<path class="st1" d="M40.7,422.9c3.1,11.5,6.5,22.8,10,34.1c0.9,2.7,3.4,3.6,5.8,2c9.2-6.3,18.4-12.4,27.2-19.3
				c1.7-1.3,1.3-4-0.3-5.2c-10.2-7-24-17.4-37-17.4c-3.3,0-5.6,4.6-2.3,6.6c5.2,3,11.5,4.1,17.1,6.4c6.5,2.7,12.8,5.8,18.5,9.9
				c0.1-1.9,0.3-3.8,0.4-5.6c-9.8,6-18.9,12.7-28.2,19.5c1.8,0.4,3.7,0.7,5.5,1.1c-4-11.2-8-22.3-12.4-33.4
				C44,419.2,40.1,420.5,40.7,422.9L40.7,422.9z"/>
		</g>
		<g>
			<path class="st4" d="M308.4,374.7c8,1.1,16.5,1.9,24.5,1.6c3-0.1,2.9-4.2,0-4.5c-7.9-0.8-16.2-0.6-24.1-0.1
				C307.2,371.8,306.5,374.4,308.4,374.7L308.4,374.7z"/>
		</g>
		<g>
			<path class="st4" d="M38.1,374.7c8,1.1,16.5,1.9,24.5,1.6c3-0.1,2.9-4.2,0-4.5c-7.9-0.8-16.2-0.6-24.1-0.1
				C36.9,371.8,36.3,374.4,38.1,374.7L38.1,374.7z"/>
		</g>
		<g>
			<path class="st5" d="M91.8,361.6c-0.1-0.1-0.3-0.2-0.4-0.4c-1.8-1.6-4.8-1.9-6.5,0c-1.8,1.9-1.7,4.6,0,6.5
				c0.1,0.1,0.2,0.3,0.4,0.4c1.6,1.8,4.9,1.8,6.6,0C93.4,366.4,93.7,363.3,91.8,361.6L91.8,361.6z"/>
		</g>
		<g>
			<g>
				<g>
					<path class="st5" d="M206.6,399.4c0,0-0.1-0.4-0.1-1.2c0-0.9-0.1-2-0.1-3.4c-0.1-2.9-0.4-6.8-0.7-11.2
						c-0.3-4.4-0.5-8.3-0.6-11.2c0-1.4,0-2.6,0-3.4c0-0.8,0.1-1.2,0.1-1.2c0,0,0.1,0.4,0.1,1.2c0,0.9,0.1,2,0.1,3.4
						c0.1,2.9,0.4,6.8,0.7,11.2c0.3,4.4,0.5,8.3,0.6,11.2c0,1.4,0,2.6,0,3.4C206.7,398.9,206.6,399.4,206.6,399.4z"/>
				</g>
			</g>
		</g>
		<polygon class="st5" points="252.6,333.2 273.8,327.2 275.1,331.1 253.7,337.7 		"/>
		<circle class="st7" cx="263.5" cy="332.3" r="2.6"/>
		<g>
			<g>
				<g>
					<path class="st5" d="M180.3,274.2c-0.1,0.1-0.7-0.5-1.3-1.2c-0.7-0.7-1.1-1.5-1-1.6c0.1-0.1,0.7,0.5,1.3,1.2
						C180,273.4,180.4,274.1,180.3,274.2z"/>
				</g>
			</g>
		</g>
		<g>
			<g>
				<g>
					<path class="st5" d="M161,276.9c-0.1,0.1-0.7-0.5-1.3-1.2c-0.7-0.7-1.1-1.5-1-1.6c0.1-0.1,0.7,0.5,1.3,1.2
						C160.7,276.1,161.1,276.8,161,276.9z"/>
				</g>
			</g>
		</g>
	</g>
</g>
<polygon class="st4" points="175.8,214 175.8,245 155,245 154.4,256.8 142.2,244.3 96.5,244.3 100.5,211.7 "/>
<g>
	<g>
		<path class="st7" d="M168.7,223c-20.4-0.3-40.9-0.5-61.3-0.1c-0.2,0-0.2,0.3,0,0.3c20.4,0.5,40.9,0.2,61.3-0.1
			C168.8,223.1,168.8,223,168.7,223L168.7,223z"/>
	</g>
</g>
<g>
	<g>
		<path class="st7" d="M168.7,228.9c-20.4-0.3-40.9-0.5-61.3-0.1c-0.2,0-0.2,0.3,0,0.3c20.4,0.5,40.9,0.2,61.3-0.1
			C168.8,229.1,168.8,228.9,168.7,228.9L168.7,228.9z"/>
	</g>
</g>
<g>
	<g>
		<path class="st7" d="M168.7,235.2c-12.5-0.2-25.2-0.3-37.7-0.1c-0.2,0-0.2,0.3,0,0.3c12.5,0.3,25.2,0.2,37.7-0.1
			C168.8,235.4,168.8,235.2,168.7,235.2L168.7,235.2z"/>
	</g>
</g>
</svg>
